<svg width="46" height="46" viewBox="0 0 46 46" fill="none" xmlns="http://www.w3.org/2000/svg">
<path d="M37.375 5.75H33.0625V4.3125C33.0625 3.93125 32.9111 3.56562 32.6415 3.29603C32.3719 3.02645 32.0062 2.875 31.625 2.875C31.2438 2.875 30.8781 3.02645 30.6085 3.29603C30.3389 3.56562 30.1875 3.93125 30.1875 4.3125V5.75H15.8125V4.3125C15.8125 3.93125 15.661 3.56562 15.3915 3.29603C15.1219 3.02645 14.7562 2.875 14.375 2.875C13.9938 2.875 13.6281 3.02645 13.3585 3.29603C13.089 3.56562 12.9375 3.93125 12.9375 4.3125V5.75H8.625C7.8625 5.75 7.13123 6.0529 6.59207 6.59207C6.0529 7.13123 5.75 7.8625 5.75 8.625V37.375C5.75 38.1375 6.0529 38.8688 6.59207 39.4079C7.13123 39.9471 7.8625 40.25 8.625 40.25H37.375C38.1375 40.25 38.8688 39.9471 39.4079 39.4079C39.9471 38.8688 40.25 38.1375 40.25 37.375V8.625C40.25 7.8625 39.9471 7.13123 39.4079 6.59207C38.8688 6.0529 38.1375 5.75 37.375 5.75ZM12.9375 8.625V10.0625C12.9375 10.4437 13.089 10.8094 13.3585 11.079C13.6281 11.3485 13.9938 11.5 14.375 11.5C14.7562 11.5 15.1219 11.3485 15.3915 11.079C15.661 10.8094 15.8125 10.4437 15.8125 10.0625V8.625H30.1875V10.0625C30.1875 10.4437 30.3389 10.8094 30.6085 11.079C30.8781 11.3485 31.2438 11.5 31.625 11.5C32.0062 11.5 32.3719 11.3485 32.6415 11.079C32.9111 10.8094 33.0625 10.4437 33.0625 10.0625V8.625H37.375V14.375H8.625V8.625H12.9375ZM37.375 37.375H8.625V17.25H37.375V37.375ZM30.4858 21.983C30.6194 22.1165 30.7255 22.275 30.7978 22.4495C30.8701 22.624 30.9074 22.8111 30.9074 23C30.9074 23.1889 30.8701 23.376 30.7978 23.5505C30.7255 23.725 30.6194 23.8835 30.4858 24.017L21.8608 32.642C21.7273 32.7757 21.5687 32.8817 21.3942 32.9541C21.2197 33.0264 21.0327 33.0636 20.8438 33.0636C20.6548 33.0636 20.4678 33.0264 20.2933 32.9541C20.1188 32.8817 19.9602 32.7757 19.8267 32.642L15.5142 28.3295C15.2445 28.0598 15.093 27.694 15.093 27.3125C15.093 26.931 15.2445 26.5652 15.5142 26.2955C15.784 26.0257 16.1498 25.8742 16.5312 25.8742C16.9127 25.8742 17.2785 26.0257 17.5483 26.2955L20.8438 29.5927L28.4517 21.983C28.5852 21.8493 28.7438 21.7433 28.9183 21.6709C29.0928 21.5986 29.2798 21.5614 29.4688 21.5614C29.6577 21.5614 29.8447 21.5986 30.0192 21.6709C30.1937 21.7433 30.3523 21.8493 30.4858 21.983Z" fill="#27ECF9"/>
</svg>
