<svg width="46" height="46" viewBox="0 0 46 46" fill="none" xmlns="http://www.w3.org/2000/svg">
<path d="M40.25 12.9375H37.375V11.5C37.375 10.3563 36.9206 9.25935 36.1119 8.4506C35.3031 7.64185 34.2062 7.1875 33.0625 7.1875H7.1875C6.04375 7.1875 4.94685 7.64185 4.1381 8.4506C3.32935 9.25935 2.875 10.3563 2.875 11.5V28.75C2.875 29.8937 3.32935 30.9906 4.1381 31.7994C4.94685 32.6081 6.04375 33.0625 7.1875 33.0625H27.3125V34.5C27.3125 35.6437 27.7669 36.7406 28.5756 37.5494C29.3844 38.3581 30.4813 38.8125 31.625 38.8125H40.25C41.3937 38.8125 42.4906 38.3581 43.2994 37.5494C44.1081 36.7406 44.5625 35.6437 44.5625 34.5V17.25C44.5625 16.1063 44.1081 15.0094 43.2994 14.2006C42.4906 13.3919 41.3937 12.9375 40.25 12.9375ZM7.1875 30.1875C6.80625 30.1875 6.44062 30.0361 6.17103 29.7665C5.90145 29.4969 5.75 29.1312 5.75 28.75V11.5C5.75 11.1188 5.90145 10.7531 6.17103 10.4835C6.44062 10.214 6.80625 10.0625 7.1875 10.0625H33.0625C33.4437 10.0625 33.8094 10.214 34.079 10.4835C34.3486 10.7531 34.5 11.1188 34.5 11.5V12.9375H31.625C30.4813 12.9375 29.3844 13.3919 28.5756 14.2006C27.7669 15.0094 27.3125 16.1063 27.3125 17.25V30.1875H7.1875ZM41.6875 34.5C41.6875 34.8812 41.5361 35.2469 41.2665 35.5165C40.9969 35.7861 40.6312 35.9375 40.25 35.9375H31.625C31.2438 35.9375 30.8781 35.7861 30.6085 35.5165C30.3389 35.2469 30.1875 34.8812 30.1875 34.5V17.25C30.1875 16.8688 30.3389 16.5031 30.6085 16.2335C30.8781 15.964 31.2438 15.8125 31.625 15.8125H40.25C40.6312 15.8125 40.9969 15.964 41.2665 16.2335C41.5361 16.5031 41.6875 16.8688 41.6875 17.25V34.5ZM24.4375 37.375C24.4375 37.7562 24.2861 38.1219 24.0165 38.3915C23.7469 38.6611 23.3812 38.8125 23 38.8125H15.8125C15.4313 38.8125 15.0656 38.6611 14.796 38.3915C14.5265 38.1219 14.375 37.7562 14.375 37.375C14.375 36.9938 14.5265 36.6281 14.796 36.3585C15.0656 36.0889 15.4313 35.9375 15.8125 35.9375H23C23.3812 35.9375 23.7469 36.0889 24.0165 36.3585C24.2861 36.6281 24.4375 36.9938 24.4375 37.375ZM38.8125 20.125C38.8125 20.5062 38.6611 20.8719 38.3915 21.1415C38.1219 21.411 37.7562 21.5625 37.375 21.5625H34.5C34.1188 21.5625 33.7531 21.411 33.4835 21.1415C33.2139 20.8719 33.0625 20.5062 33.0625 20.125C33.0625 19.7438 33.2139 19.3781 33.4835 19.1085C33.7531 18.839 34.1188 18.6875 34.5 18.6875H37.375C37.7562 18.6875 38.1219 18.839 38.3915 19.1085C38.6611 19.3781 38.8125 19.7438 38.8125 20.125Z" fill="#965BEC"/>
</svg>
