<svg width="60" height="60" viewBox="0 0 60 60" fill="none" xmlns="http://www.w3.org/2000/svg">
<g clip-path="url(#clip0_1014_33521)">
<rect x="-0.691406" y="15.8678" width="63.354" height="6.13697" rx="2.07039" fill="#38486A"/>
<path d="M30.441 46.2191C25.3847 46.2191 20.3284 46.2058 15.272 46.2191C12.9373 46.2191 10.9895 45.4053 9.50863 43.5775C8.54806 42.3902 8.01441 41.0294 8.01441 39.4951C8.01441 33.2381 7.97438 26.981 8.02775 20.7373C8.05443 16.9884 11.1629 14 14.9118 14C25.3047 14 35.6975 14 46.0903 14C49.8259 14 52.9344 16.9884 52.961 20.7373C53.0144 26.9677 53.0144 33.2114 52.961 39.4417C52.9344 43.284 49.8392 46.1791 45.8635 46.2058C43.1419 46.2191 40.4069 46.2058 37.6853 46.2058C35.2706 46.2191 32.8558 46.2191 30.441 46.2191ZM50.5596 22.4984C50.5596 21.9114 50.5863 21.3377 50.573 20.7507C50.4929 18.3359 48.5318 16.4014 46.1303 16.4014C35.7108 16.3881 25.2913 16.3881 14.8585 16.4014C12.7772 16.4014 10.9762 17.8823 10.5226 19.9102C10.3358 20.764 10.4025 21.6312 10.4292 22.485C10.4292 23.2855 10.4292 24.086 10.4292 24.8865C10.4158 24.9798 10.4025 25.0866 10.4025 25.18C10.4025 29.8361 10.4025 34.4921 10.4025 39.1482C10.4025 39.4684 10.4158 39.7886 10.4825 40.0955C10.9361 42.3902 12.7772 43.8043 15.272 43.8043C25.4114 43.8043 35.5641 43.8043 45.7034 43.8043C46.1303 43.8043 46.5706 43.7776 46.9975 43.6843C49.1855 43.204 50.573 41.4162 50.573 39.0949C50.5863 34.4921 50.573 29.8761 50.573 25.2733C50.573 25.1399 50.5596 25.0065 50.5463 24.8731C50.5596 24.0993 50.5596 23.2988 50.5596 22.4984Z" fill="#87FF4F"/>
<path d="M9.73438 20.804C23.5694 20.804 37.3906 20.804 51.2256 20.804C51.2256 21.6045 51.2256 22.405 51.2256 23.2055C37.4044 23.2055 23.5694 23.2055 9.74817 23.2055C9.73437 22.405 9.73438 21.6045 9.73438 20.804Z" fill="#87FF4F"/>
<path d="M15.2929 37.7412C14.8266 37.7412 14.3603 37.7552 13.894 37.7412C13.4003 37.7272 13.0894 37.2642 13.0711 36.5628C13.0528 35.8193 13.3454 35.2582 13.8483 35.2441C14.8358 35.2021 15.8324 35.2021 16.8198 35.2441C17.3044 35.2582 17.6153 35.8474 17.6061 36.5628C17.5879 37.2502 17.2587 37.7272 16.7741 37.7412C16.7558 37.7412 16.7284 37.7412 16.7101 37.7412C16.2255 37.7412 15.7592 37.7412 15.2929 37.7412Z" fill="#87FF4F"/>
<g clip-path="url(#clip1_1014_33521)">
<path d="M34.1533 26.897C34.1758 26.897 34.1983 26.897 34.2208 26.9046H37.6169V24.8064H29.3477V26.9879C29.3926 26.9349 29.4601 26.9046 29.5351 26.9046H34.1533V26.897Z" fill="#87FF4F"/>
<path d="M40.6609 27.8136L44.3345 32.3735H47.7307V27.5712H45.2566V29.2906L43.8622 27.5712H43.2099C43.0675 27.5712 42.955 27.4575 42.955 27.3136V27.1546C42.955 27.0106 43.0675 26.897 43.2099 26.897H43.3224L41.643 24.8064H38.1719V32.3735H40.6609V27.8136ZM42.1378 27.1621C42.1378 27.0182 42.2503 26.9046 42.3927 26.9046C42.5352 26.9046 42.6476 27.0182 42.6476 27.1621V27.3212C42.6476 27.4651 42.5352 27.5787 42.3927 27.5787C42.2503 27.5787 42.1378 27.4651 42.1378 27.3212V27.1621ZM40.6984 27.1621C40.6984 27.0182 40.8108 26.9046 40.9533 26.9046H41.4181C41.5606 26.9046 41.673 27.0182 41.673 27.1621V27.3212C41.673 27.4651 41.5606 27.5787 41.4181 27.5787H40.9533C40.8108 27.5787 40.6984 27.4651 40.6984 27.3212V27.1621Z" fill="#87FF4F"/>
<path d="M47.7201 24.8064H45.2461V26.897H47.7201V24.8064Z" fill="#87FF4F"/>
<path d="M38.6527 36.5169C38.5252 36.5169 38.4203 36.4032 38.4203 36.2593V36.1002C38.4203 36.0094 38.4653 35.9336 38.5252 35.8806C38.3828 35.464 38.1879 35.108 37.9405 34.8277C37.6856 34.5399 37.3557 34.305 36.9508 34.1233C36.546 33.9415 36.1112 33.8127 35.6389 33.7369C35.1665 33.6612 34.6192 33.6233 34.0045 33.6233C32.4751 33.6233 31.3355 33.9263 30.5858 34.5323C29.8361 35.1383 29.4688 36.0775 29.4688 37.3425C29.4688 38.7059 29.8361 39.7134 30.5633 40.3648C31.2905 41.0162 32.4601 41.3419 34.072 41.3419C34.7167 41.3419 35.2865 41.3041 35.7738 41.2207C36.2611 41.1374 36.6959 41.0087 37.0858 40.8269C37.4681 40.6451 37.783 40.4027 38.0229 40.1073C38.2628 39.8118 38.4428 39.4407 38.5702 39.0165C38.6977 38.5847 38.7576 38.0772 38.7576 37.4864C38.7576 37.1304 38.7276 36.8123 38.6827 36.5093H38.6527V36.5169ZM35.6988 38.8953C35.324 39.2059 34.7917 39.3574 34.1019 39.3574C33.4122 39.3574 32.8724 39.1831 32.5201 38.8423C32.1602 38.5014 31.9878 38.0469 31.9878 37.4788C31.9878 37.1834 32.0328 36.9183 32.1152 36.6911C32.1977 36.4638 32.3251 36.2593 32.4976 36.1002C32.67 35.9336 32.8874 35.8124 33.1573 35.7291C33.4197 35.6458 33.7346 35.6079 34.0795 35.6079C34.7467 35.6079 35.279 35.767 35.6763 36.0851C36.0737 36.4032 36.2686 36.8729 36.2686 37.4788C36.2611 38.1 36.0737 38.5923 35.6988 38.8953ZM37.2507 36.2593C37.2507 36.4032 37.1458 36.5169 37.0183 36.5169H36.5985C36.471 36.5169 36.3661 36.4032 36.3661 36.2593V36.1002C36.3661 35.9563 36.471 35.8427 36.5985 35.8427H37.0183C37.1458 35.8427 37.2507 35.9563 37.2507 36.1002V36.2593ZM38.1429 36.2593C38.1429 36.4032 38.0379 36.5169 37.9105 36.5169C37.783 36.5169 37.6781 36.4032 37.6781 36.2593V36.1002C37.6781 35.9563 37.783 35.8427 37.9105 35.8427C38.0379 35.8427 38.1429 35.9563 38.1429 36.1002V36.2593Z" fill="#87FF4F"/>
<path d="M37.6173 30.2753H31.837V29.5936H37.2574V27.5787H31.837H29.5429C29.4679 27.5787 29.4005 27.5484 29.3555 27.4954V32.3811H37.6248V30.2753H37.6173Z" fill="#87FF4F"/>
<path d="M45.6308 33.7445V38.2288L44.3713 36.5093H40.2029C40.0754 36.5093 39.9705 36.3957 39.9705 36.2518V36.0927C39.9705 35.9488 40.0754 35.8352 40.2029 35.8352H43.8765L42.3396 33.7445H39.1758V35.8352H39.3107C39.4382 35.8352 39.5431 35.9488 39.5431 36.0927V36.2518C39.5431 36.3957 39.4382 36.5093 39.3107 36.5093H39.1758V41.3192H41.4399V36.7593L44.7911 41.3192H47.8874V33.7445H45.6308Z" fill="#87FF4F"/>
<path d="M28.6745 32.3735V30.2829H23.8314L28.1497 27.5712H27.8423C27.6999 27.5712 27.5874 27.4575 27.5874 27.3136V27.1546C27.5874 27.0106 27.6999 26.897 27.8423 26.897H28.5621C28.5995 26.897 28.6445 26.9046 28.6745 26.9273V24.8064H20.1953V26.9122H25.1209L20.1953 29.9572V32.3735H20.3378H28.6745ZM26.7703 27.1621C26.7703 27.0182 26.8827 26.9046 27.0252 26.9046C27.1676 26.9046 27.2801 27.0182 27.2801 27.1621V27.3212C27.2801 27.4651 27.1676 27.5787 27.0252 27.5787C26.8827 27.5787 26.7703 27.4651 26.7703 27.3212V27.1621ZM25.3308 27.1621C25.3308 27.0182 25.4433 26.9046 25.5857 26.9046H26.0505C26.193 26.9046 26.3054 27.0182 26.3054 27.1621V27.3212C26.3054 27.4651 26.193 27.5787 26.0505 27.5787H25.5857C25.4433 27.5787 25.3308 27.4651 25.3308 27.3212V27.1621Z" fill="#87FF4F"/>
<path d="M22.4576 36.5699C22.555 36.4184 22.6825 36.2896 22.8399 36.1836C22.9974 36.0851 23.2148 36.0018 23.4922 35.9336C23.7696 35.8654 24.092 35.8351 24.4593 35.8351C24.8716 35.8351 25.239 35.8806 25.5539 35.9715C25.8688 36.0624 26.1012 36.1609 26.2586 36.2745C26.416 36.3881 26.5435 36.5093 26.641 36.6532C26.7384 36.7971 26.7984 36.8956 26.8134 36.9486C26.8284 37.0092 26.8434 37.0547 26.8509 37.0925H29.175C29.175 36.5623 29.0925 36.0927 28.9351 35.6912C28.7701 35.2898 28.5152 34.9338 28.1554 34.6308C27.7955 34.3278 27.3157 34.093 26.6934 33.9263C26.0787 33.7673 25.344 33.6839 24.4818 33.6839C23.7171 33.6839 23.0574 33.7521 22.4951 33.8884C21.9403 34.0248 21.4605 34.2445 21.0631 34.555C20.6658 34.858 20.3734 35.267 20.171 35.7745C19.9761 36.2821 19.8711 36.888 19.8711 37.6C19.8711 38.259 19.9461 38.8196 20.1035 39.2741C20.2609 39.7285 20.5158 40.1148 20.8757 40.433C21.2356 40.7511 21.7154 40.9859 22.3076 41.1374C22.9074 41.2814 23.6421 41.3571 24.5268 41.3571C25.2465 41.3571 25.8763 41.3041 26.4235 41.1905C26.9708 41.0768 27.4132 40.9329 27.7505 40.7435C28.0879 40.5542 28.3653 40.3194 28.5827 40.0391C28.8001 39.7588 28.9426 39.471 29.0325 39.168C29.1225 38.865 29.16 38.5393 29.16 38.1681H26.8359L26.8134 38.2742C26.7984 38.3499 26.7534 38.4333 26.6635 38.5393C26.5735 38.6454 26.461 38.7438 26.3111 38.8499C26.1611 38.9483 25.9212 39.0392 25.5989 39.1074C25.2765 39.1832 24.8941 39.2135 24.4518 39.2135C24.0095 39.2135 23.6571 39.168 23.3647 39.0847C23.0649 39.0014 22.8399 38.8726 22.675 38.7135C22.5101 38.5545 22.3976 38.3727 22.3226 38.1833C22.2477 37.9864 22.2177 37.7667 22.2177 37.5167C22.2177 37.3349 22.2327 37.1759 22.2627 37.0244C22.3001 36.8729 22.3601 36.7214 22.4576 36.5699Z" fill="#87FF4F"/>
</g>
</g>
<defs>
<clipPath id="clip0_1014_33521">
<rect width="45" height="32.2191" fill="white" transform="translate(8 14)"/>
</clipPath>
<clipPath id="clip1_1014_33521">
<rect width="28.0166" height="16.5431" fill="white" transform="translate(19.8711 24.8064)"/>
</clipPath>
</defs>
</svg>
