<svg width="60" height="60" viewBox="0 0 60 60" fill="none" xmlns="http://www.w3.org/2000/svg">
<path fill-rule="evenodd" clip-rule="evenodd" d="M31.0683 9.97171L50.9073 29.8337L48.1457 32.5984L42.7919 27.2384V36.4391C42.7919 39.9277 38.5845 41.6687 36.1225 39.2039L19.2275 22.2893V35.4284L29.4921 45.705L26.7306 48.4697L7.64062 29.3642L10.4022 26.5994L15.3131 31.516V22.2893C15.3131 18.8007 19.5206 17.0597 21.9825 19.5245L38.8776 36.4391V23.326L28.3068 12.7365L31.0683 9.97171Z" fill="white"/>
<path fill-rule="evenodd" clip-rule="evenodd" d="M33.4908 9.09148C35.3405 10.4543 36.0309 12.1758 35.9072 14.5558C35.7769 17.0206 35.7183 21.3373 35.6792 24.5259C35.6466 26.8277 35.6271 28.5492 35.588 28.5622C34.8585 27.6689 34.1291 26.7755 33.3996 25.8757C29.7588 21.4025 26.1179 16.9293 22.4706 12.4496C22.8679 12.0323 23.2131 11.6671 23.5192 11.3346C24.5287 10.2522 25.167 9.57401 26.1765 8.70676C28.15 7.01138 31.1916 7.1418 33.2303 8.85021C33.2693 8.88282 33.3019 8.91542 33.341 8.94802C33.3866 8.99367 33.4387 9.03931 33.4908 9.07844V9.09148ZM11.522 35.9827C11.5155 36.0479 11.509 36.1131 11.496 36.1849C6.73488 32.7159 5.6081 28.2427 11.5546 23.626C11.5546 25.0149 11.5546 26.3778 11.5546 27.7275C11.5546 30.388 11.5546 32.9962 11.5546 35.6045C11.5546 35.7284 11.5416 35.8458 11.522 35.9762V35.9827ZM25.7597 50.915C23.91 49.5522 23.2196 47.8308 23.3433 45.4507C23.4736 42.9859 23.5322 38.6692 23.5713 35.4806C23.6039 33.1788 23.6234 31.4574 23.6625 31.4443L25.8379 34.1178L25.8574 34.1439C29.4917 38.6105 33.126 43.0772 36.7734 47.5504C36.3761 47.9677 36.0309 48.3329 35.7248 48.6654C34.7152 49.7478 34.077 50.426 33.0674 51.2932C31.094 52.9886 28.0523 52.8582 26.0137 51.1498C25.9746 51.1172 25.9421 51.0846 25.903 51.052C25.8574 51.0063 25.8053 50.9607 25.7532 50.9216L25.7597 50.915ZM47.761 23.913V36.3414C54.0527 31.3661 52.0271 26.8603 47.761 23.913Z" fill="url(#paint0_linear_1014_33542)"/>
<defs>
<linearGradient id="paint0_linear_1014_33542" x1="15.207" y1="32.9525" x2="51.756" y2="22.1704" gradientUnits="userSpaceOnUse">
<stop stop-color="#23C3C4"/>
<stop offset="1" stop-color="#A801F1"/>
</linearGradient>
</defs>
</svg>
