<svg width="60" height="60" viewBox="0 0 60 60" fill="none" xmlns="http://www.w3.org/2000/svg">
<path d="M47.8485 14.3175V7.5H11.4453V14.3175H25.1153V18.8841H34.1782V14.3175H47.8485Z" fill="white"/>
<path d="M34.1801 36.8464H25.1172V46.6902H34.1801V36.8464Z" fill="white"/>
<path d="M16.4147 20.5488C16.0756 21.012 15.6958 21.4433 15.361 21.9111C13.658 24.2917 12.5792 26.929 12.2587 29.8333C11.6219 35.6067 13.3943 40.5509 17.5363 44.6353C17.9634 45.0566 18.4193 45.4477 18.9053 45.8006C19.0206 45.8841 19.0311 45.9429 18.9388 46.0518C18.343 46.7529 17.7467 47.4538 17.1634 48.1657C17.0169 48.3447 16.9327 48.207 16.8442 48.1371C15.9853 47.4596 15.1769 46.7264 14.437 45.9196C9.57189 40.615 7.8225 33.3005 9.79679 26.3851C10.7803 22.9401 12.5737 19.961 15.1157 17.434C15.1565 17.3935 15.202 17.358 15.2451 17.3201C15.3841 17.7048 15.5216 18.09 15.6628 18.4737C15.9169 19.1643 16.1266 19.871 16.4147 20.5491V20.5488Z" fill="white"/>
<path d="M20.8417 48.8868C20.6156 49.2784 20.3855 49.6677 20.1656 50.0628C20.0991 50.1822 20.038 50.2089 19.9156 50.137C19.5258 49.9079 19.1322 49.6851 18.7375 49.4647C18.6291 49.4042 18.6029 49.3407 18.6682 49.2289C19.1352 48.4259 19.5998 47.6211 20.0624 46.8155C20.1181 46.7185 20.1658 46.6929 20.2742 46.7569C20.6701 46.9919 21.0704 47.2193 21.4742 47.4406C21.6015 47.5105 21.6041 47.576 21.5351 47.6916C21.2994 48.087 21.0724 48.4876 20.842 48.8865L20.8417 48.8868Z" fill="#F6BF18"/>
<path d="M34.7115 48.5829C34.7742 48.5611 34.8129 48.548 34.8511 48.534C35.2819 48.3738 35.7148 48.2198 36.1419 48.0504C36.2893 47.9918 36.3409 48.0346 36.3898 48.1718C36.6972 49.029 37.0109 49.8841 37.3264 50.7384C37.373 50.8647 37.3794 50.9422 37.2236 50.9957C36.7968 51.1425 36.375 51.3035 35.9531 51.4642C35.8317 51.5105 35.7693 51.5012 35.7192 51.3597C35.4145 50.5013 35.0984 49.6471 34.7861 48.7917C34.761 48.7229 34.7366 48.6539 34.7109 48.5829H34.7115Z" fill="white"/>
<path d="M31.7698 49.2427C31.8223 49.2307 31.8683 49.2188 31.9152 49.2101C32.3758 49.1253 32.8372 49.0459 33.2963 48.9539C33.4114 48.9309 33.4513 48.9448 33.4726 49.0686C33.6296 49.9834 33.7933 50.8968 33.9594 51.8101C33.9865 51.9589 33.9574 52.0291 33.7896 52.0547C33.3511 52.1223 32.9162 52.2111 32.4801 52.2926C32.3714 52.313 32.3012 52.3118 32.2767 52.1659C32.1197 51.2345 31.9513 50.3051 31.787 49.3752C31.78 49.3356 31.7765 49.2954 31.7695 49.2424L31.7698 49.2427Z" fill="white"/>
<path d="M40.5091 49.2927C40.475 49.316 40.4427 49.3419 40.4075 49.3626C40.0174 49.59 39.625 49.8133 39.2378 50.0454C39.1084 50.1231 39.042 50.0954 38.9692 49.9676C38.5185 49.1754 38.0652 48.3846 37.602 47.5999C37.5138 47.4505 37.5528 47.3946 37.6871 47.3207C38.0678 47.1102 38.4448 46.8921 38.8157 46.6647C38.9418 46.5875 39.0039 46.5881 39.0822 46.7258C39.5411 47.5324 40.0092 48.3336 40.4724 49.1378C40.4986 49.1835 40.5508 49.2289 40.5094 49.293L40.5091 49.2927Z" fill="white"/>
<path d="M27.3417 49.2594C27.4189 49.2848 27.4029 49.345 27.3929 49.4012C27.2275 50.3382 27.0605 51.2748 26.8968 52.2121C26.8776 52.3227 26.819 52.3376 26.7217 52.3201C26.2609 52.2386 25.8003 52.1574 25.338 52.0854C25.2121 52.0659 25.199 52.0089 25.2179 51.9023C25.3837 50.9811 25.5477 50.0595 25.7091 49.1374C25.7251 49.0457 25.7362 48.9866 25.86 49.0093C26.3363 49.0973 26.8147 49.1738 27.2921 49.2542C27.3085 49.2568 27.3248 49.2574 27.3417 49.2586V49.2594Z" fill="#F6BF18"/>
<path d="M28.7405 49.4174C28.7824 49.3671 28.8326 49.3805 28.8806 49.3802C29.3482 49.3772 29.8161 49.3784 30.2833 49.3665C30.4168 49.363 30.4474 49.4035 30.4468 49.5313C30.4412 50.458 30.4401 51.3848 30.4456 52.3116C30.4465 52.4531 30.4013 52.4962 30.2632 52.4947C29.812 52.4898 29.3607 52.4924 28.9098 52.4999C28.7874 52.502 28.7338 52.4752 28.7344 52.3392C28.7393 51.4043 28.7373 50.4694 28.7376 49.5345C28.7376 49.4937 28.7396 49.453 28.7405 49.4177V49.4174Z" fill="#F6BF18"/>
<path d="M24.3461 48.6332C24.4466 48.646 24.4219 48.7043 24.3971 48.7721C24.0734 49.6575 23.7489 50.5427 23.4325 51.4307C23.3853 51.5629 23.318 51.5658 23.2108 51.5268C22.7791 51.3699 22.3474 51.2135 21.9144 51.0604C21.8061 51.0219 21.7825 50.9686 21.8238 50.8568C22.1446 49.9877 22.4589 49.1163 22.7762 48.246C22.8068 48.1621 22.824 48.0742 22.9606 48.1263C23.42 48.3016 23.8841 48.4655 24.3461 48.6338V48.6332Z" fill="#F6BF18"/>
<path d="M42.7774 20.4207C43.1165 20.8839 43.4964 21.3151 43.8311 21.783C45.5342 24.1635 46.613 26.8009 46.9334 29.7052C47.5703 35.4786 45.7979 40.4228 41.6558 44.5072C41.2288 44.9285 40.7728 45.3195 40.2869 45.6724C40.1716 45.756 40.1611 45.8148 40.2534 45.9237C40.8492 46.6248 41.4455 47.3256 42.0287 48.0375C42.1753 48.2166 42.2595 48.0789 42.348 48.009C43.2068 47.3315 44.0153 46.5983 44.7552 45.7915C49.6206 40.4869 51.37 33.1723 49.396 26.2573C48.4125 22.8123 46.6191 19.8331 44.077 17.3061C44.0362 17.2657 43.9908 17.2301 43.9477 17.1923C43.8087 17.5769 43.6712 17.9621 43.5299 18.3459C43.2759 19.0365 43.0661 19.7431 42.778 20.4213L42.7774 20.4207Z" fill="white"/>
<path d="M36.8177 27.3774C37.1312 27.3788 37.1835 27.3159 37.0872 27.0078C36.4725 25.0342 35.876 23.0548 35.2839 21.0743C35.2129 20.8372 35.11 20.7578 34.8526 20.7589C31.3303 20.7695 27.8083 20.7691 24.2859 20.7604C24.0223 20.7596 23.9048 20.8299 23.8264 21.0926C23.2399 23.0625 22.6416 25.0287 22.0297 26.9909C21.9327 27.3024 21.9759 27.3796 22.3113 27.3777C24.7165 27.3649 27.1221 27.3708 29.5277 27.3712C31.9578 27.3712 34.3876 27.3668 36.8177 27.377V27.3774Z" fill="#F6BF18"/>
<path d="M45.198 34.915C44.5649 32.8309 43.9282 30.748 43.3013 28.6617C43.2405 28.4594 43.1223 28.444 42.9483 28.444C39.3886 28.4477 35.8293 28.4491 32.2696 28.4411C32.0393 28.4407 31.9591 28.519 31.8969 28.7302C31.5655 29.8573 31.2155 30.9789 30.8728 32.1027C30.5773 33.0717 30.2829 34.0411 29.9805 35.0347H45.2108C45.206 34.9856 45.2086 34.9483 45.1983 34.9146L45.198 34.915Z" fill="#F6BF18"/>
<path d="M27.3529 28.7087C27.2918 28.5056 27.2061 28.4426 26.9985 28.443C23.4392 28.4488 19.8798 28.4496 16.3201 28.4426C16.0986 28.4423 15.999 28.5085 15.9353 28.7215C15.3381 30.714 14.7369 32.7055 14.1196 34.6922C14.0247 34.9974 14.0833 35.0585 14.3924 35.0571C16.8104 35.0465 19.2281 35.0512 21.6461 35.0512C24.0762 35.0512 26.5064 35.0494 28.9369 35.0549C29.1738 35.0556 29.2942 35.0582 29.1965 34.7464C28.5682 32.7381 27.9578 30.7243 27.3529 28.709V28.7087Z" fill="#F6BF18"/>
</svg>
