<svg width="60" height="60" viewBox="0 0 60 60" fill="none" xmlns="http://www.w3.org/2000/svg">
<g clip-path="url(#clip0_1014_33550)">
<path d="M15.3914 18.62L16.5241 16.664L16.6271 16.4838L17.0518 15.7504L17.2964 15.3128L18.3905 13.4341L19.5489 11.4267H40.4267L41.6367 13.5242L44.9318 13.537H46.7596L44.2496 9.21333L42.9753 7H40.4267H19.5489H16.9875L15.7132 9.21333L5.27429 27.2802L4 29.4936L5.27429 31.7069L9.16153 38.4498L11.2982 36.9056L12.7785 35.8504L9.11004 29.4936L15.3914 18.62Z" fill="#FFD987"/>
<path d="M54.6873 27.2802L50.8 20.5502L48.6762 22.0815L47.196 23.1495L50.8644 29.4936L44.5702 40.38L43.4503 42.3231L43.3474 42.5161L42.9226 43.2496L42.6652 43.6871L41.5839 45.553L40.4255 47.5733H19.5477L18.3378 45.4758L15.0426 45.463H13.2148L15.7119 49.7867L16.9862 52H19.5477H40.4255H42.9741L44.2484 49.7867L54.6873 31.7069L55.9744 29.4936L54.6873 27.2802Z" fill="#FFD987"/>
<path d="M47.4036 16.7283H44.2372L42.5124 16.7155L39.9766 16.7026L21.2227 16.6382L41.3282 38.5656L40.1568 24.9125L43.3747 22.5962L45.1639 21.3094L46.3738 20.4344L48.6135 18.8258L51.4968 16.7412L47.4036 16.7283Z" fill="white"/>
<path d="M19.8204 34.0875L16.6025 36.4037L14.8004 37.6906L13.5905 38.5656L11.3637 40.1741L8.48047 42.2459L12.5737 42.2588L15.7401 42.2716L17.452 42.2845H20.0006L38.7546 42.3488L18.6491 20.4215L19.8204 34.0875Z" fill="white"/>
</g>
<defs>
<clipPath id="clip0_1014_33550">
<rect width="51.9757" height="45" fill="white" transform="translate(4 7)"/>
</clipPath>
</defs>
</svg>
