<svg width="60" height="60" viewBox="0 0 60 60" fill="none" xmlns="http://www.w3.org/2000/svg">
<path d="M7.11466 24.0211C14.3493 27.7943 21.5762 31.583 28.8108 35.3587C29.1847 35.5535 29.6002 35.6729 30.1274 35.8781C31.283 35.2886 32.4697 34.6835 33.6564 34.0759C34.638 33.5747 35.3703 32.8632 35.3729 31.6869C35.3755 30.4586 34.6328 29.7445 33.5941 29.2069C30.2962 27.5034 27.0216 25.748 23.7237 24.0445C22.6616 23.4966 21.8073 22.824 21.8177 21.5204C21.8255 20.2246 22.6642 19.5547 23.7341 19.0015C27.5747 17.0254 31.405 15.0337 35.1989 12.9692C35.8014 12.642 36.5856 11.8967 36.5648 11.3748C36.544 10.8217 35.7364 10.1855 35.134 9.79593C34.1238 9.14154 32.9683 8.71307 31.9399 8.08725C30.6182 7.28224 29.4262 7.33418 28.0551 8.06388C21.1191 11.7591 14.1468 15.3894 7.17958 19.0223C6.11489 19.578 5.28133 20.2714 5.28912 21.5672C5.29691 22.8032 6.09152 23.4888 7.11206 24.0211H7.11466Z" fill="#72F4FA"/>
<path d="M31.5514 21.4607C31.5255 22.6786 32.2707 23.4394 33.2939 23.9718C36.1244 25.4442 38.9263 26.9763 41.8062 28.3474C42.4943 28.6746 43.5798 28.7525 44.2419 28.4383C47.3165 26.9789 50.3366 25.3948 53.3047 23.7303C54.0007 23.3408 54.4187 22.4579 54.9641 21.8035C54.7459 20.3103 53.9773 19.6274 52.9568 19.095C50.2405 17.6798 47.5165 16.2853 44.834 14.8103C43.6499 14.1585 42.6086 14.1689 41.427 14.8181C38.7471 16.2931 36.0257 17.6954 33.3095 19.1028C32.3253 19.6118 31.5774 20.2999 31.5514 21.4633V21.4607Z" fill="#72F4FA"/>
<path d="M53.8645 28.2071C53.1218 27.5709 52.6232 27.6462 51.9844 28.5058C51.2391 29.5055 50.3484 30.5443 49.2811 31.1259C43.7863 34.12 38.1955 36.9375 32.6799 39.8979C30.7609 40.9288 29.0054 40.8068 27.1487 39.8252C21.6903 36.9375 16.1799 34.1434 10.7552 31.1883C9.68534 30.604 8.82061 29.5445 8.03638 28.5629C7.35083 27.706 6.87821 27.5242 6.06023 28.2669C4.65537 29.5419 5.11759 31.4947 7.1353 32.5568C14.2063 36.278 21.2878 39.9758 28.3744 43.6684C28.8626 43.9229 29.4183 44.0501 30.0234 44.2631C30.5713 44.0475 31.1504 43.8762 31.6775 43.6035C36.1258 41.3027 40.5689 38.9916 45.0068 36.6727C47.762 35.234 50.5198 33.8006 53.2516 32.3205C54.9162 31.4168 55.1966 29.3523 53.8645 28.2071Z" fill="#72F4FA"/>
<path d="M52.9345 36.1949C52.7345 36.1196 52.2411 36.883 51.8542 37.231C50.9402 38.0516 50.1196 39.0591 49.0653 39.6278C43.6328 42.5622 38.1302 45.3589 32.6744 48.2518C30.8774 49.2048 29.1843 49.223 27.3821 48.2699C21.6926 45.2603 15.9537 42.3441 10.2953 39.2799C9.37599 38.7813 8.67226 37.7867 8.02566 36.9064C7.39464 36.0469 6.83114 35.8807 6.05989 36.6208C4.7589 37.8698 5.07571 39.7888 6.81036 40.7029C14.071 44.5306 21.3498 48.3219 28.6104 52.1443C29.6413 52.6871 30.5917 52.5702 31.5655 52.0535C34.0065 50.7603 36.4501 49.4697 38.8989 48.1894C43.5289 45.7692 48.1616 43.3542 52.7969 40.947C53.8486 40.4017 54.7003 39.7291 54.6717 38.1736C54.6484 38.0594 54.6873 37.6231 54.4874 37.405C54.0407 36.9194 53.524 36.4182 52.9319 36.1949H52.9345Z" fill="#72F4FA"/>
</svg>
