<svg width="60" height="60" viewBox="0 0 60 60" fill="none" xmlns="http://www.w3.org/2000/svg">
<g clip-path="url(#clip0_1014_33512)">
<path d="M37.599 9.91852C36.8155 8.56142 35.0323 8.17733 33.7596 9.09225L31.5834 10.6494L46.4365 36.3758C47.0272 37.399 46.7463 38.7046 45.787 39.3944L26.9745 52.9182C23.757 55.4792 24.3679 56.9904 24.4949 57.228L24.5147 57.2624L24.5765 57.3694C25.093 58.264 26.2421 58.5622 27.1285 58.0317L53.0773 42.5133C54.595 41.6048 55.1032 39.648 54.2188 38.1164L37.5983 9.91725L37.599 9.91852Z" fill="#4F4F4F"/>
<path d="M11.035 25.3564L31.5821 10.6494L29.3418 6.76918C28.8188 5.86317 27.6112 5.63439 26.7926 6.28539L7.95786 21.2832C6.29691 22.6057 5.85452 24.9442 6.9154 26.7817L9.92737 31.9986C7.84901 28.3987 8.85609 26.9236 11.035 25.3564Z" fill="#FFD987"/>
<path d="M23.4632 55.4414L24.4954 57.2293C24.3677 56.9904 23.7568 55.4792 26.9743 52.9182L45.7868 39.3944C46.7461 38.7046 47.0278 37.4003 46.4363 36.3757L31.5832 10.6494L11.0361 25.3564C8.85718 26.9237 7.8501 28.3988 9.92846 31.9986L23.4632 55.4414Z" fill="#CFB06E"/>
</g>
<defs>
<clipPath id="clip0_1014_33512">
<rect width="35.2976" height="45" fill="white" transform="translate(3 20) rotate(-30)"/>
</clipPath>
</defs>
</svg>
