<svg width="80" height="39" viewBox="0 0 80 39" fill="none" xmlns="http://www.w3.org/2000/svg">
<path d="M24.1659 37.778C20.5497 34.1619 16.885 30.4971 13.1328 26.7449C14.1063 25.8103 15.1478 24.8407 16.1544 23.8361C17.3144 22.6799 17.1123 21.5529 15.6492 20.8437C14.1938 20.1383 13.4612 18.8617 13.6808 17.4102C13.879 16.1063 15.0215 14.9677 16.3215 14.7772C17.8157 14.5577 19.0613 15.2572 19.7686 16.7126C20.402 18.0164 21.7311 18.2593 22.7591 17.2372C23.787 16.2151 24.7488 15.2106 25.7515 14.1865C26.6997 15.1872 27.58 16.118 28.4602 17.0487C25.2618 20.1927 24.9315 23.2803 27.6072 25.651C30.0535 27.8175 33.3355 27.2385 35.6847 24.2597C36.5727 25.1671 37.4666 26.0785 38.3118 26.9431C34.7443 30.5049 31.099 34.1444 27.4595 37.778C26.5501 38.6874 25.0753 38.6854 24.1659 37.778Z" fill="#965BEC"/>
<path d="M24.3738 12.5506C23.3207 13.5708 22.4016 14.4607 21.4689 15.3643C20.1184 13.2793 18.1986 12.2631 15.6492 12.8188C13.5176 13.2832 12.1477 14.6745 11.7221 16.7828C11.2228 19.2583 12.173 21.215 14.2948 22.5383C13.3505 23.4438 12.4294 24.326 11.5589 25.1596C8.00495 21.6095 4.34993 17.9564 0.683252 14.2936C-0.228074 13.3823 -0.228074 11.9036 0.685195 10.9942C4.31107 7.38388 7.97969 3.7308 11.728 0C12.6412 0.930757 13.5992 1.92369 14.5766 2.90109C15.8843 4.21075 16.9297 4.03781 17.7245 2.39587C18.3618 1.08038 19.6676 0.353649 21.0433 0.549904C22.456 0.75199 23.5325 1.81682 23.7384 3.21782C23.9463 4.63435 23.2643 5.91682 21.9585 6.56582C20.2447 7.41497 20.0776 8.4079 21.4455 9.76032C22.4093 10.7125 23.4042 11.6296 24.3738 12.5526V12.5506Z" fill="#27ECF9"/>
<path d="M54.125 14.2197C55.114 15.2224 56.0137 16.1337 56.925 17.0586C54.807 18.4518 53.7849 20.4105 54.4087 22.9929C54.8984 25.0216 56.2547 26.3623 58.2774 26.7917C60.7919 27.3242 62.7738 26.3701 64.1437 24.1627C65.059 25.1265 65.9392 26.0533 66.7825 26.9414C63.1877 30.5284 59.5405 34.1678 55.9165 37.784C55.0052 38.6934 53.5304 38.6914 52.621 37.7801C49.0107 34.1601 45.3401 30.4778 41.5977 26.7237C42.5245 25.826 43.533 24.8719 44.5162 23.8926C45.7734 22.6393 45.585 21.6036 43.976 20.805C42.5887 20.1152 41.893 18.8288 42.134 17.3948C42.3671 16.0113 43.4184 14.9639 44.765 14.7774C46.2223 14.5734 47.5145 15.2807 48.1732 16.6409C48.9427 18.2323 50.0114 18.413 51.2628 17.15C52.2382 16.1667 53.1981 15.166 54.1192 14.2178L54.125 14.2197Z" fill="#EC54C7"/>
<path d="M68.3245 25.3831C67.3646 24.396 66.3678 23.3389 65.336 22.3168C64.2264 21.2189 63.0781 21.4482 62.4291 22.8609C61.7684 24.3007 60.4704 25.0469 58.9956 24.8351C57.6295 24.6388 56.5433 23.5254 56.3471 22.1186C56.145 20.6768 56.8659 19.4157 58.2688 18.757C59.7573 18.0575 59.971 16.9518 58.8187 15.7899C57.818 14.7814 56.794 13.7962 55.8555 12.8732C56.8076 11.9036 57.7034 10.9942 58.6341 10.046C60.0526 12.2145 62.1104 13.2133 64.7764 12.4729C66.7914 11.9133 68.0408 10.4968 68.3983 8.44678C68.82 6.02759 67.8582 4.15636 65.8528 2.88167C66.7681 1.99366 67.6774 1.10954 68.5266 0.287598C72.0456 3.81243 75.6889 7.46162 79.3187 11.0972C80.2281 12.0066 80.2281 13.4814 79.3187 14.3908C75.7472 17.9623 72.0883 21.6192 68.3284 25.3792L68.3245 25.3831Z" fill="white"/>
<path d="M52.6065 12.7332C51.7613 13.592 50.8811 14.4839 49.9445 15.4361C48.8699 13.7125 47.3368 12.6749 45.2674 12.6652C43.7867 12.6593 42.4906 13.2054 41.4511 14.2974C39.1349 16.7321 39.607 19.7906 42.7452 22.6392C41.8455 23.5136 40.9439 24.3881 39.881 25.4199C39.0202 24.5182 38.105 23.5311 37.1606 22.5732C35.7499 21.143 34.7939 21.2965 33.8962 23.0648C33.2433 24.3511 31.9259 25.0448 30.5268 24.8389C29.2618 24.6504 28.1873 23.5991 27.9211 22.2836C27.6529 20.9643 28.2786 19.6157 29.4911 18.9084C29.631 18.8268 29.7787 18.7608 29.9244 18.6928C31.3215 18.0437 31.5334 16.9731 30.4491 15.8655C29.4328 14.8279 28.3816 13.8252 27.3867 12.8498C28.3719 11.8763 29.2793 10.9785 30.2159 10.0536C31.5333 12.1697 33.5348 13.1179 36.0744 12.5564C37.9321 12.1464 39.3991 10.7551 39.8694 8.91106C40.5495 6.24315 39.5138 4.25533 37.3938 2.85822L38.2468 2.04794C39.3078 1.0414 40.9769 1.06278 42.0087 2.09846C45.4908 5.5922 49.0603 9.17532 52.6085 12.7351L52.6065 12.7332Z" fill="#FEDDA2"/>
</svg>
