<svg width="317" height="205" viewBox="0 0 317 205" fill="none" xmlns="http://www.w3.org/2000/svg">
<g filter="url(#filter0_f_1014_33406)">
<path d="M226.757 164.462C190.418 149.233 145.731 153.528 113.764 176.715C112.575 177.577 113.963 179.372 115.195 178.76C131.829 170.519 149.204 164.093 167.713 161.824C187.295 159.422 206.751 162.517 225.135 169.446C228.333 170.652 229.828 165.754 226.754 164.465L226.757 164.462Z" fill="#004E7A"/>
<path d="M234.544 171.079C232.711 171.211 232.61 173.601 234.417 173.909C235.777 174.137 237.13 174.691 238.377 175.266C239.361 175.723 240.573 174.931 240.876 173.995C241.295 172.709 240.347 171.541 239.08 171.4C237.56 171.225 236.084 170.967 234.547 171.076L234.544 171.079Z" fill="#004E7A"/>
<path d="M81.2948 159.491C71.2838 149.74 61.366 139.895 51.5148 129.991C41.6202 120.043 32.2082 109.406 21.3847 100.44C20.5441 99.746 19.6021 101.002 20.1761 101.789C28.3854 113.002 38.1968 123.099 47.5184 133.387C56.8901 143.731 66.4749 153.868 76.5892 163.49C79.438 166.198 84.1604 162.283 81.2948 159.491Z" fill="#004E7A"/>
<path d="M203.118 124.29C203.871 128.52 209.952 126.816 209.459 122.753C205.378 89.0104 212.432 54.9682 207.948 21.3485C207.669 19.2785 204.397 19.7354 204.385 21.7418C204.282 38.9994 203.274 56.1128 202.16 73.3329C201.073 90.1329 200.142 107.63 203.111 124.297L203.118 124.29Z" fill="#004E7A"/>
<path d="M132.112 127.903C124.343 106.348 117.066 83.9878 105.569 64.0531C104.251 61.7689 101.196 63.6358 102.095 65.9463C110.283 87.0211 118.129 108.139 125.561 129.496C126.984 133.59 133.582 131.977 132.115 127.906L132.112 127.903Z" fill="#004E7A"/>
<path d="M294.521 81.6452C279.96 103.539 264.759 124.839 254.309 149.099C252.394 153.543 258.562 156.209 260.424 151.718C270.344 127.793 283.138 104.945 296.549 82.8403C297.338 81.5379 295.36 80.3862 294.525 81.6419L294.521 81.6452Z" fill="#004E7A"/>
<path d="M100.636 144.473C95.1373 137.489 89.302 130.954 84.1526 123.64C79.0766 116.433 73.8707 109.403 68.0654 102.758C67.308 101.888 66.1126 103.103 66.7967 103.98C77.4879 117.615 83.7387 137.385 97.8101 148.047C100.038 149.735 102.111 146.347 100.633 144.47L100.636 144.473Z" fill="#004E7A"/>
<path d="M178.3 89.9339C178.32 100.483 178.96 111.065 180.986 121.436C181.582 124.496 186.17 123.323 185.648 120.303C183.764 109.47 182.898 98.5937 182.534 87.6148C182.219 78.0825 182.673 68.0742 180.958 58.6739C180.844 58.0405 179.764 57.9795 179.661 58.6494C178.104 68.8332 178.284 79.6419 178.304 89.9306L178.3 89.9339Z" fill="#004E7A"/>
<path d="M170.335 121.885C170.388 103.731 169.845 85.5259 169.568 67.3747C169.55 66.2048 167.643 65.8098 167.451 67.0628C164.765 85.0612 165.885 103.65 165.436 121.794C165.359 124.953 170.321 125.041 170.328 121.885L170.335 121.885Z" fill="#004E7A"/>
<path d="M250.944 82.1684C251.177 81.0488 249.496 80.1474 248.977 81.3267C245.176 90.012 242.531 99.335 239.807 108.405C236.996 117.774 232.673 128.435 232.486 138.284C232.444 140.374 235.137 140.476 235.849 138.784C239.337 130.451 240.485 120.55 242.843 111.794C245.497 101.947 248.867 92.1585 250.938 82.1684L250.944 82.1684Z" fill="#004E7A"/>
<path d="M291.168 111.127C281.813 126.826 271.916 142.161 263.152 158.211C261.774 160.73 265.582 163.013 267.003 160.491C275.997 144.545 285.735 129.109 293.388 112.442C294.064 110.966 292.036 109.671 291.168 111.127Z" fill="#004E7A"/>
<path d="M109.379 161.951C99.5399 168.367 90.6249 176.035 82.834 184.706C82.834 184.706 107.513 165.312 133.106 154.484C149.317 147.626 164.343 145.417 178.058 144.9C195.068 144.256 209.129 147.182 222.838 152.007C243.176 159.165 258.774 170.335 258.774 170.335C219.776 131.35 153.55 133.159 109.386 161.951H109.379Z" fill="#004E7A"/>
</g>
<path d="M226.757 161.462C190.418 146.233 145.731 150.528 113.764 173.715C112.575 174.577 113.963 176.372 115.195 175.76C131.829 167.519 149.204 161.093 167.713 158.824C187.295 156.422 206.751 159.517 225.135 166.446C228.333 167.652 229.828 162.754 226.754 161.465L226.757 161.462Z" fill="white"/>
<path d="M234.544 168.079C232.711 168.211 232.61 170.601 234.417 170.909C235.777 171.137 237.13 171.691 238.377 172.266C239.361 172.723 240.573 171.931 240.876 170.995C241.295 169.709 240.347 168.541 239.08 168.4C237.56 168.225 236.084 167.967 234.547 168.076L234.544 168.079Z" fill="white"/>
<path d="M81.2948 156.491C71.2838 146.74 61.366 136.895 51.5148 126.991C41.6202 117.043 32.2082 106.406 21.3847 97.44C20.5441 96.746 19.6021 98.0016 20.1761 98.7887C28.3854 110.002 38.1968 120.099 47.5184 130.387C56.8901 140.731 66.4749 150.868 76.5892 160.49C79.438 163.198 84.1604 159.283 81.2948 156.491Z" fill="white"/>
<path d="M203.118 121.29C203.871 125.52 209.952 123.816 209.459 119.753C205.378 86.0104 212.432 51.9682 207.948 18.3485C207.669 16.2785 204.397 16.7354 204.385 18.7418C204.282 35.9994 203.274 53.1128 202.16 70.3329C201.073 87.1329 200.142 104.63 203.111 121.297L203.118 121.29Z" fill="white"/>
<path d="M132.112 124.903C124.343 103.348 117.066 80.9878 105.569 61.0531C104.251 58.7689 101.196 60.6358 102.095 62.9463C110.283 84.0211 118.129 105.139 125.561 126.496C126.984 130.59 133.582 128.977 132.115 124.906L132.112 124.903Z" fill="white"/>
<path d="M294.521 78.6452C279.96 100.539 264.759 121.839 254.309 146.099C252.394 150.543 258.562 153.209 260.424 148.718C270.344 124.793 283.138 101.945 296.549 79.8403C297.338 78.5379 295.36 77.3862 294.525 78.6419L294.521 78.6452Z" fill="white"/>
<path d="M100.636 141.473C95.1373 134.489 89.302 127.954 84.1526 120.64C79.0766 113.433 73.8707 106.403 68.0654 99.7583C67.308 98.8877 66.1126 100.103 66.7967 100.98C77.4879 114.615 83.7387 134.385 97.8101 145.047C100.038 146.735 102.111 143.347 100.633 141.47L100.636 141.473Z" fill="white"/>
<path d="M178.3 86.9339C178.32 97.4825 178.96 108.065 180.986 118.436C181.582 121.496 186.17 120.323 185.648 117.303C183.764 106.47 182.898 95.5937 182.534 84.6148C182.219 75.0825 182.673 65.0742 180.958 55.6739C180.844 55.0405 179.764 54.9795 179.661 55.6494C178.104 65.8332 178.284 76.6419 178.304 86.9306L178.3 86.9339Z" fill="white"/>
<path d="M170.335 118.885C170.388 100.731 169.845 82.5259 169.568 64.3747C169.55 63.2048 167.643 62.8098 167.451 64.0628C164.765 82.0612 165.885 100.65 165.436 118.794C165.359 121.953 170.321 122.041 170.328 118.885L170.335 118.885Z" fill="white"/>
<path d="M250.944 79.1684C251.177 78.0488 249.496 77.1474 248.977 78.3267C245.176 87.012 242.531 96.335 239.807 105.405C236.996 114.774 232.673 125.435 232.486 135.284C232.444 137.374 235.137 137.476 235.849 135.784C239.337 127.451 240.485 117.55 242.843 108.794C245.497 98.9474 248.867 89.1585 250.938 79.1684L250.944 79.1684Z" fill="white"/>
<path d="M291.168 108.127C281.813 123.826 271.916 139.161 263.152 155.211C261.774 157.73 265.582 160.013 267.003 157.491C275.997 141.545 285.735 126.109 293.388 109.442C294.064 107.966 292.036 106.671 291.168 108.127Z" fill="white"/>
<path d="M109.379 158.951C99.5399 165.367 90.6249 173.035 82.834 181.706C82.834 181.706 107.513 162.312 133.106 151.484C149.317 144.626 164.343 142.417 178.058 141.9C195.068 141.256 209.129 144.182 222.838 149.007C243.176 156.165 258.774 167.335 258.774 167.335C219.776 128.35 153.55 130.159 109.386 158.951H109.379Z" fill="white"/>
<defs>
<filter id="filter0_f_1014_33406" x="0" y="0" width="316.73" height="204.706" filterUnits="userSpaceOnUse" color-interpolation-filters="sRGB">
<feFlood flood-opacity="0" result="BackgroundImageFix"/>
<feBlend mode="normal" in="SourceGraphic" in2="BackgroundImageFix" result="shape"/>
<feGaussianBlur stdDeviation="10" result="effect1_foregroundBlur_1014_33406"/>
</filter>
</defs>
</svg>
