<svg width="46" height="46" viewBox="0 0 46 46" fill="none" xmlns="http://www.w3.org/2000/svg">
<path d="M34.5 20.8438C34.5 21.2702 34.3735 21.6871 34.1366 22.0417C33.8997 22.3963 33.5629 22.6727 33.1689 22.8359C32.7749 22.9991 32.3414 23.0418 31.9231 22.9586C31.5048 22.8754 31.1206 22.67 30.8191 22.3684C30.5175 22.0669 30.3121 21.6827 30.2289 21.2644C30.1457 20.8461 30.1884 20.4126 30.3516 20.0186C30.5148 19.6246 30.7912 19.2878 31.1458 19.0509C31.5004 18.814 31.9173 18.6875 32.3438 18.6875C32.9156 18.6875 33.4641 18.9147 33.8684 19.3191C34.2728 19.7234 34.5 20.2719 34.5 20.8438ZM27.3125 11.5H20.125C19.7438 11.5 19.3781 11.6515 19.1085 11.921C18.839 12.1906 18.6875 12.5563 18.6875 12.9375C18.6875 13.3187 18.839 13.6844 19.1085 13.954C19.3781 14.2235 19.7438 14.375 20.125 14.375H27.3125C27.6937 14.375 28.0594 14.2235 28.329 13.954C28.5986 13.6844 28.75 13.3187 28.75 12.9375C28.75 12.5563 28.5986 12.1906 28.329 11.921C28.0594 11.6515 27.6937 11.5 27.3125 11.5ZM44.5625 20.125V25.875C44.5625 27.0187 44.1081 28.1156 43.2994 28.9244C42.4906 29.7331 41.3937 30.1875 40.25 30.1875H39.8259L36.9132 38.3417C36.7138 38.9003 36.3465 39.3834 35.8617 39.7251C35.3769 40.0667 34.7984 40.2501 34.2053 40.25H31.9197C31.3266 40.2501 30.7481 40.0667 30.2633 39.7251C29.7785 39.3834 29.4112 38.9003 29.2118 38.3417L28.8668 37.375H18.5707L18.2257 38.3417C18.0263 38.9003 17.659 39.3834 17.1742 39.7251C16.6894 40.0667 16.1109 40.2501 15.5178 40.25H13.2322C12.6391 40.2501 12.0606 40.0667 11.5758 39.7251C11.091 39.3834 10.7237 38.9003 10.5243 38.3417L8.26562 32.0239C6.11689 29.592 4.77144 26.556 4.41312 23.3306C3.94921 23.5743 3.56072 23.9401 3.28963 24.3886C3.01854 24.837 2.87516 25.351 2.875 25.875C2.875 26.2562 2.72355 26.6219 2.45397 26.8915C2.18438 27.1611 1.81875 27.3125 1.4375 27.3125C1.05625 27.3125 0.690618 27.1611 0.421034 26.8915C0.15145 26.6219 0 26.2562 0 25.875C0.00219646 24.593 0.432728 23.3486 1.22319 22.3393C2.01366 21.3301 3.11872 20.614 4.36281 20.3047C4.68395 16.3432 6.48316 12.6473 9.40319 9.95096C12.3232 7.25462 16.1505 5.75505 20.125 5.75H38.8125C39.1937 5.75 39.5594 5.90145 39.829 6.17103C40.0986 6.44062 40.25 6.80625 40.25 7.1875C40.25 7.56875 40.0986 7.93438 39.829 8.20397C39.5594 8.47355 39.1937 8.625 38.8125 8.625H34.969C37.3546 10.2988 39.2308 12.5997 40.3902 15.2734C40.4674 15.4531 40.5429 15.6328 40.6148 15.8125C41.6942 15.9041 42.6995 16.3986 43.431 17.1976C44.1624 17.9967 44.5664 19.0417 44.5625 20.125ZM41.6875 20.125C41.6875 19.7438 41.5361 19.3781 41.2665 19.1085C40.9969 18.839 40.6312 18.6875 40.25 18.6875H39.5923C39.2862 18.6878 38.9879 18.5904 38.741 18.4094C38.4941 18.2284 38.3114 17.9733 38.2195 17.6813C37.3959 15.053 35.754 12.7568 33.5332 11.1276C31.3125 9.49841 28.6292 8.62156 25.875 8.625H20.125C17.6143 8.62487 15.1577 9.35531 13.055 10.7272C10.9522 12.0992 9.29405 14.0533 8.28274 16.3514C7.27144 18.6494 6.95066 21.1921 7.35953 23.6693C7.7684 26.1466 8.88924 28.4513 10.5854 30.3025C10.7151 30.4436 10.8153 30.6091 10.8801 30.7895L13.2322 37.375H15.5178L16.2042 35.4541C16.3039 35.175 16.4874 34.9335 16.7296 34.7627C16.9718 34.5919 17.2609 34.5002 17.5573 34.5H29.8802C30.1766 34.5002 30.4657 34.5919 30.7079 34.7627C30.9501 34.9335 31.1336 35.175 31.2333 35.4541L31.9197 37.375H34.2053L37.4595 28.2666C37.5591 27.9875 37.7426 27.746 37.9848 27.5752C38.227 27.4044 38.5161 27.3127 38.8125 27.3125H40.25C40.6312 27.3125 40.9969 27.1611 41.2665 26.8915C41.5361 26.6219 41.6875 26.2562 41.6875 25.875V20.125Z" fill="#EC54C7"/>
</svg>
