<svg width="379" height="253" viewBox="0 0 379 253" fill="none" xmlns="http://www.w3.org/2000/svg">
<path opacity="0.07" d="M0 153.201L207.619 250.487L367.155 136.456L190.612 36.4363L0 153.201Z" fill="black"/>
<path opacity="0.09" d="M4.63281 151.498L207.202 247.607L363.994 135.542L190.497 37.2341L4.63281 151.498Z" fill="black"/>
<path opacity="0.11" d="M9.26172 149.786L206.782 244.717L360.83 134.617L190.368 38.032L9.26172 149.786Z" fill="black"/>
<path opacity="0.13" d="M13.9023 148.083L206.363 241.837L357.667 133.693L190.241 38.8396L13.9023 148.083Z" fill="black"/>
<path opacity="0.16" d="M18.5312 146.381L205.942 238.957L354.503 132.779L190.112 39.6375L18.5312 146.381Z" fill="black"/>
<path opacity="0.18" d="M23.1641 144.668L205.525 236.068L351.342 131.854L189.987 40.4353L23.1641 144.668Z" fill="black"/>
<path opacity="0.2" d="M27.8086 142.965L205.111 233.188L348.184 130.93L189.864 41.2329L27.8086 142.965Z" fill="black"/>
<path opacity="0.22" d="M32.4414 141.263L204.694 230.308L345.023 130.015L189.739 42.0308L32.4414 141.263Z" fill="black"/>
<path opacity="0.24" d="M37.0703 139.56L204.283 227.428L341.859 129.091L189.61 42.8384L37.0703 139.56Z" fill="black"/>
<path opacity="0.26" d="M41.6992 137.848L203.862 224.538L338.694 128.167L189.491 43.6362L41.6992 137.848Z" fill="black"/>
<path opacity="0.28" d="M46.3438 136.145L203.447 221.658L335.536 127.252L189.368 44.4341L46.3438 136.145Z" fill="black"/>
<path opacity="0.3" d="M50.9727 134.442L203.026 218.778L332.371 126.328L189.24 45.2319L50.9727 134.442Z" fill="black"/>
<path d="M149.038 51.7993C153.698 47.2264 164.168 45.8642 171.903 48.9582C178.12 51.4393 180.513 56.8392 177.118 60.7115C175.191 62.9104 171.99 64.4477 168.332 65.2066C166.6 65.5666 166.405 66.9385 167.991 67.4833L199.359 78.2248L217.972 59.9721C219.178 58.7948 222.263 58.97 223.012 60.2737C224.218 62.385 226.806 64.2531 230.543 65.3817C237.548 67.4931 246.314 66.1309 250.498 62.2877C255.09 58.0651 252.687 52.4998 245.273 49.9604C241.946 48.822 238.18 48.4912 234.668 48.8609C232.323 49.1139 230.552 47.635 231.759 46.448L250.371 28.1953L169.791 0.602266C166.269 -0.6042 161.735 0.0574168 159.672 2.0909L112.387 48.4426L143.794 59.1937C145.36 59.7289 147.335 58.9797 147.043 57.9484C146.46 55.8954 147.063 53.7257 149.028 51.7993H149.038Z" fill="url(#paint0_linear_1014_33614)"/>
<path d="M234.676 48.8609C238.188 48.4815 241.953 48.8123 245.281 49.9604C246.633 50.4274 247.811 50.9917 248.823 51.6241L250.389 50.0966V28.2051L231.776 46.4577C230.57 47.6448 232.341 49.1236 234.685 48.8707L234.676 48.8609Z" fill="url(#paint1_linear_1014_33614)"/>
<path d="M252.726 58.6194C252.473 59.8843 251.763 61.1296 250.508 62.2777C246.324 66.1209 237.567 67.4831 230.552 65.3717C226.816 64.2431 224.228 62.375 223.022 60.2637C222.273 58.96 219.179 58.7751 217.982 59.9621L199.369 78.2148L168.001 67.4733C166.405 66.9285 166.61 65.5566 168.342 65.1966C172.01 64.4377 175.211 62.9004 177.127 60.7015C180.523 56.8292 178.129 51.439 171.912 48.9482C164.177 45.8542 153.718 47.2261 149.048 51.7893C147.082 53.7157 146.479 55.8854 147.063 57.9383C147.355 58.9794 145.389 59.7286 143.813 59.1837L112.406 48.4326V70.3241L143.813 81.0753C145.38 81.6104 147.355 80.8612 147.063 79.8299C146.479 77.7769 147.082 75.6072 149.048 73.6808C152.774 70.0225 160.208 68.4268 166.989 69.5068V87.9735C166.785 88.4795 167.096 89.0535 168.001 89.3551L199.369 100.097L217.982 81.8439C219.188 80.6666 222.273 80.8417 223.022 82.1455C224.228 84.2568 226.816 86.1249 230.552 87.2535C237.558 89.3649 246.324 88.0027 250.508 84.1595C252.434 82.3888 253.115 80.3845 252.726 78.458V58.6V58.6194Z" fill="url(#paint2_linear_1014_33614)"/>
<path d="M220.774 81.0949V59.2033C219.723 59.1158 218.595 59.359 217.972 59.972L199.359 78.2246V100.116L217.972 81.8635C218.595 81.2505 219.723 81.0073 220.774 81.0949Z" fill="url(#paint3_linear_1014_33614)"/>
<path d="M218.646 81.4255C218.646 81.4255 218.559 81.4548 218.52 81.4743C218.559 81.4548 218.607 81.4451 218.646 81.4255Z" fill="url(#paint4_linear_1014_33614)"/>
<path d="M219.279 81.2114C219.279 81.2114 219.24 81.2114 219.211 81.2212C219.23 81.2212 219.25 81.2212 219.279 81.2114Z" fill="url(#paint5_linear_1014_33614)"/>
<path d="M167.993 67.4831C166.398 66.9382 166.602 65.5664 168.334 65.2064C172.002 64.4475 175.203 62.9102 177.12 60.7113C180.515 56.8389 178.122 51.4488 171.904 48.958C164.169 45.864 153.71 47.2359 149.04 51.799C147.075 53.7255 146.471 55.8952 147.055 57.9481C147.347 58.9892 145.382 59.7286 143.805 59.1935L112.398 48.4423V70.3338L143.805 81.085C145.372 81.6201 147.347 80.871 147.055 79.8396C146.471 77.7867 147.075 75.617 149.04 73.6906C152.766 70.042 160.2 68.4366 166.981 69.5166V87.9833C166.777 88.4892 167.088 89.0633 167.993 89.3649L199.361 100.106V78.2148L167.993 67.4734V67.4831Z" fill="url(#paint6_linear_1014_33614)"/>
<path d="M252.728 78.4774V58.6194C252.475 59.8842 251.764 61.1296 250.509 62.2777C246.326 66.1209 237.569 67.483 230.554 65.3717C226.808 64.2431 224.23 62.375 223.023 60.2637C222.478 59.3102 220.678 58.9599 219.277 59.3102C219.754 59.1934 220.279 59.1545 220.776 59.2032V81.0947C221.749 81.1725 222.654 81.5325 223.013 82.1649C224.22 84.2763 226.808 86.1443 230.544 87.273C237.549 89.3843 246.316 88.0221 250.5 84.179C252.426 82.4082 253.107 80.4039 252.718 78.4774H252.728Z" fill="url(#paint7_linear_1014_33614)"/>
<path d="M141.529 58.4149L112.398 48.4421L141.529 58.4149Z" fill="url(#paint8_linear_1014_33614)"/>
<path d="M143.808 81.0948C144.012 81.1629 144.217 81.2115 144.421 81.2407C144.217 81.2115 144.003 81.1629 143.808 81.0948Z" fill="url(#paint9_linear_1014_33614)"/>
<path d="M144.535 81.2407C144.71 81.2602 144.885 81.2699 145.061 81.2699C144.885 81.2699 144.71 81.2699 144.535 81.2407Z" fill="url(#paint10_linear_1014_33614)"/>
<path d="M166.94 88.1394C166.921 88.2367 166.921 88.334 166.94 88.4216V88.1394Z" fill="url(#paint11_linear_1014_33614)"/>
<path d="M166.945 66.5979C166.779 66.0336 167.256 65.4206 168.336 65.1968C172.004 64.4379 175.205 62.9007 177.122 60.7018C180.517 56.8294 178.124 51.4392 171.907 48.9485C164.172 45.8545 153.712 47.2263 149.042 51.7895C147.077 53.716 146.474 55.8857 147.057 57.9386C147.203 58.4445 146.804 58.8726 146.191 59.1256V81.0074C146.376 80.9101 147.232 80.4334 147.057 79.8301C146.474 77.7772 147.077 75.6075 149.042 73.681C152.759 70.0324 160.173 68.4368 166.945 69.507V66.5882V66.5979Z" fill="url(#paint12_linear_1014_33614)"/>
<g style="mix-blend-mode:color-dodge">
<path d="M231.69 47.0219C231.69 47.0219 231.739 46.9636 231.768 46.9344L250.381 28.6817L249.281 28.3022L231.768 45.4652C231.243 45.9809 231.282 46.5549 231.69 47.0122V47.0219Z" fill="url(#paint13_radial_1014_33614)"/>
<path d="M250.51 61.305C246.326 65.1482 237.57 66.5103 230.555 64.399C226.809 63.2704 224.23 61.4023 223.024 59.291C222.275 57.9872 219.181 57.8023 217.984 58.9894L199.371 77.242L168.003 66.5006C167.711 66.4033 167.497 66.2671 167.322 66.1211C166.622 66.6854 166.807 67.5514 168.003 67.96L199.371 78.7015L217.984 60.4488C219.191 59.2715 222.275 59.4466 223.024 60.7504C224.23 62.8617 226.819 64.7298 230.555 65.8584C237.56 67.9697 246.326 66.6076 250.51 62.7644C252.339 61.0812 253.04 59.1937 252.777 57.3645C252.582 58.7169 251.853 60.0693 250.51 61.305Z" fill="url(#paint14_radial_1014_33614)"/>
<path d="M146.898 57.676C146.401 58.2987 144.991 58.6295 143.813 58.2208L113.506 47.8491L112.406 48.9291L143.813 59.6803C145.38 60.2154 147.355 59.4662 147.063 58.4349C146.995 58.1819 146.937 57.929 146.907 57.676H146.898Z" fill="url(#paint15_radial_1014_33614)"/>
<path d="M178.607 56.5863C179.055 53.3269 176.545 49.8437 171.904 47.9853C164.169 44.8913 153.71 46.2632 149.039 50.8264C147.307 52.5193 146.636 54.4068 146.899 56.2263C147.084 54.8739 147.774 53.5215 149.039 52.2858C153.7 47.7129 164.169 46.3508 171.904 49.4448C175.864 51.0307 178.257 53.7939 178.607 56.5863Z" fill="url(#paint16_radial_1014_33614)"/>
</g>
<path style="mix-blend-mode:color-dodge" d="M236.146 83.1478C234.268 83.1283 232.819 76.8917 232.906 69.2151C232.994 61.5384 234.589 55.3407 236.467 55.3602C238.345 55.3796 239.795 61.6163 239.707 69.2929C239.62 76.9695 238.024 83.1673 236.146 83.1478Z" fill="url(#paint17_radial_1014_33614)"/>
<path style="mix-blend-mode:color-dodge" d="M162.931 61.7428C161.053 61.7233 159.604 55.4867 159.691 47.81C159.779 40.1334 161.374 33.9357 163.252 33.9551C165.13 33.9746 166.58 40.2112 166.492 47.8879C166.405 55.5645 164.809 61.7622 162.931 61.7428Z" fill="url(#paint18_radial_1014_33614)"/>
<path d="M116.578 118.486C110.04 114.711 110.293 108.513 117.356 104.981C123.038 102.14 132.661 102.179 138.333 105.059C141.554 106.693 143.354 108.873 143.743 111.12C143.928 112.181 146.175 112.638 147.479 111.889L173.117 97.0904L147.022 82.029C145.339 81.0561 146.38 79.3729 148.754 79.2853C152.597 79.1491 156.352 78.1761 159.155 76.3762C164.399 72.9903 164.243 67.746 158.804 64.4283C152.84 60.7894 142.916 60.7018 136.854 64.2045C134.13 65.7709 132.661 67.7947 132.437 69.8574C132.291 71.2292 129.382 71.8422 127.689 70.8692L101.594 55.8079L35.735 93.831C32.855 95.4948 32.8745 98.1996 35.7642 99.8731L102.032 138.139L127.699 123.321C128.983 122.582 128.205 121.288 126.395 121.191C122.815 120.996 119.312 120.101 116.559 118.515L116.578 118.486Z" fill="url(#paint19_linear_1014_33614)"/>
<path d="M159.163 76.3761C156.361 78.1761 152.605 79.1491 148.762 79.2853C146.388 79.3729 145.337 81.0561 147.03 82.029L162.909 91.1943V71.4141C162.607 73.214 161.362 74.9556 159.163 76.3761Z" fill="url(#paint20_linear_1014_33614)"/>
<path d="M147.487 111.889C146.183 112.638 143.936 112.181 143.751 111.12C143.362 108.873 141.562 106.693 138.341 105.059C132.659 102.169 123.037 102.14 117.364 104.981C110.301 108.513 110.048 114.72 116.586 118.486C119.34 120.072 122.832 120.967 126.423 121.161C127.532 121.22 128.252 121.735 128.349 122.29V122.309C128.349 122.329 128.349 122.348 128.349 122.368V124.771C132.007 124.839 135.627 125.569 138.351 126.95C141.572 128.585 143.372 130.764 143.761 133.012C143.946 134.072 146.193 134.53 147.497 133.781L172.054 119.605L173.134 119.381V97.0903L147.497 111.889H147.487Z" fill="url(#paint21_linear_1014_33614)"/>
<path d="M35.7818 99.8633C34.3613 99.046 33.6315 97.9757 33.6024 96.8958V118.33H33.6315C33.4272 119.546 34.1472 120.811 35.7818 121.755L102.05 160.021V138.13L35.7818 99.8633Z" fill="url(#paint22_linear_1014_33614)"/>
<path d="M127.717 123.302L102.051 138.12V160.011L127.717 145.193C128.116 144.96 128.301 144.678 128.33 144.395H128.34V144.269C128.34 144.25 128.34 144.23 128.34 144.211V122.377C128.36 122.708 128.175 123.039 127.717 123.311V123.302Z" fill="url(#paint23_linear_1014_33614)"/>
<path d="M127.717 123.302L102.051 138.12V160.011L127.717 145.193C128.116 144.96 128.301 144.678 128.33 144.395H128.34V144.269C128.34 144.25 128.34 144.23 128.34 144.211V122.377C128.36 122.708 128.175 123.039 127.717 123.311V123.302Z" fill="url(#paint24_linear_1014_33614)"/>
<g style="mix-blend-mode:color-dodge">
<path d="M127.57 122.416L102.049 137.147L35.7812 98.8805C34.7596 98.287 34.1077 97.5768 33.7964 96.8179C33.2321 98.2092 33.8937 99.7368 35.7812 100.826L102.049 139.093L127.716 124.275C128.679 123.72 128.485 122.854 127.56 122.416H127.57Z" fill="url(#paint25_radial_1014_33614)"/>
<path d="M159.16 75.403C156.358 77.2127 152.602 78.1759 148.769 78.3121C146.531 78.39 145.47 79.8883 146.774 80.8807C147.222 80.5402 147.903 80.2872 148.769 80.258C152.612 80.1218 156.367 79.1489 159.16 77.3489C162.127 75.4322 163.363 72.9219 162.886 70.4993C162.565 72.27 161.33 74.0019 159.16 75.403Z" fill="url(#paint26_radial_1014_33614)"/>
<path d="M147.485 110.916C146.181 111.665 143.934 111.208 143.749 110.147C143.36 107.9 141.56 105.72 138.339 104.086C132.657 101.196 123.035 101.167 117.362 104.008C113.237 106.07 111.447 109.048 111.972 111.918C112.381 109.7 114.171 107.549 117.362 105.954C123.044 103.113 132.667 103.152 138.339 106.032C141.56 107.666 143.36 109.846 143.749 112.093C143.934 113.154 146.181 113.611 147.485 112.862L173.123 98.063L171.439 97.0901L147.485 110.916Z" fill="url(#paint27_radial_1014_33614)"/>
</g>
<path style="mix-blend-mode:color-dodge" d="M127.302 119.945C125.794 119.926 124.636 113.602 124.723 105.808C124.811 98.0148 126.105 91.7198 127.623 91.7295C129.131 91.749 130.289 98.0732 130.201 105.867C130.114 113.66 128.82 119.955 127.302 119.945Z" fill="url(#paint28_radial_1014_33614)"/>
<path style="mix-blend-mode:color-dodge" d="M136.036 120.424C140.43 118.619 141.064 110.032 137.453 101.244C133.842 92.4571 127.353 86.7973 122.959 88.6028C118.566 90.4084 117.931 98.9956 121.542 107.783C125.153 116.57 131.643 122.23 136.036 120.424Z" fill="url(#paint29_radial_1014_33614)"/>
<path d="M265.898 73.1459C272.436 76.921 272.183 83.1187 265.12 86.6506C259.437 89.4916 249.815 89.4527 244.143 86.5727C240.922 84.9382 239.122 82.7587 238.733 80.5112C238.548 79.4507 236.301 78.9934 234.997 79.7426L209.359 94.5412L235.454 109.603C237.137 110.576 236.096 112.259 233.722 112.346C229.879 112.483 226.123 113.456 223.321 115.255C218.077 118.641 218.233 123.886 223.672 127.203C229.636 130.842 239.56 130.93 245.621 127.427C248.346 125.861 249.815 123.837 250.039 121.774C250.185 120.402 253.094 119.789 254.787 120.762L280.881 135.824L346.741 97.8007C349.621 96.1369 349.601 93.4321 346.712 91.7586L280.444 53.4922L254.777 68.3103C253.493 69.0498 254.271 70.3438 256.081 70.4411C259.661 70.6357 263.164 71.5308 265.917 73.1167L265.898 73.1459Z" fill="url(#paint30_linear_1014_33614)"/>
<path d="M265.898 73.1459C272.436 76.921 272.183 83.1187 265.12 86.6506C259.437 89.4916 249.815 89.4527 244.143 86.5727C240.922 84.9382 239.122 82.7587 238.733 80.5112C238.548 79.4507 236.301 78.9934 234.997 79.7426L209.359 94.5412L235.454 109.603C237.137 110.576 236.096 112.259 233.722 112.346C229.879 112.483 226.123 113.456 223.321 115.255C218.077 118.641 218.233 123.886 223.672 127.203C229.636 130.842 239.56 130.93 245.621 127.427C248.346 125.861 249.815 123.837 250.039 121.774C250.185 120.402 253.094 119.789 254.787 120.762L280.881 135.824L346.741 97.8007C349.621 96.1369 349.601 93.4321 346.712 91.7586L280.444 53.4922L254.777 68.3103C253.493 69.0498 254.271 70.3438 256.081 70.4411C259.661 70.6357 263.164 71.5308 265.917 73.1167L265.898 73.1459Z" fill="url(#paint31_linear_1014_33614)"/>
<path d="M265.117 86.6507C272.181 83.1189 272.434 76.9114 265.896 73.146C263.142 71.5601 259.649 70.665 256.059 70.4704C254.901 70.4023 254.172 69.8575 254.133 69.2737H254.094V88.7523C258.093 88.8398 262.14 88.149 265.117 86.6604V86.6507Z" fill="url(#paint32_linear_1014_33614)"/>
<path d="M348.871 116.588H348.92V94.687H348.871C348.92 95.8254 348.209 96.954 346.731 97.8102L280.871 135.833V157.725L346.731 119.702C348.209 118.846 348.92 117.717 348.871 116.588Z" fill="url(#paint33_linear_1014_33614)"/>
<path d="M348.871 116.588H348.92V94.687H348.871C348.92 95.8254 348.209 96.954 346.731 97.8102L280.871 135.833V157.725L346.731 119.702C348.209 118.846 348.92 117.717 348.871 116.588Z" fill="url(#paint34_linear_1014_33614)"/>
<path d="M223.321 115.256C226.123 113.456 229.879 112.483 233.722 112.346C236.096 112.259 237.147 110.576 235.454 109.603L209.359 94.5413V116.433L219.517 122.3L219.634 122.271C219.079 119.799 220.286 117.221 223.321 115.265V115.256Z" fill="url(#paint35_linear_1014_33614)"/>
<path d="M254.786 120.772C253.949 120.286 252.821 120.198 251.867 120.393V142.284C252.821 142.09 253.949 142.187 254.786 142.664L280.881 157.725V135.834L254.786 120.772Z" fill="url(#paint36_linear_1014_33614)"/>
<path d="M250.04 121.784C249.816 123.847 248.347 125.861 245.622 127.437C239.561 130.94 229.637 130.862 223.673 127.213C221.386 125.812 220.043 124.071 219.635 122.271L219.518 122.3V142.566C219.323 144.911 220.705 147.285 223.673 149.095C229.637 152.744 239.561 152.821 245.622 149.319C248.347 147.752 249.816 145.729 250.04 143.666C250.118 142.965 250.896 142.469 251.879 142.275V120.383C250.906 120.578 250.118 121.084 250.04 121.774V121.784Z" fill="url(#paint37_linear_1014_33614)"/>
<path d="M250.04 121.784C249.816 123.847 248.347 125.861 245.622 127.437C239.561 130.94 229.637 130.862 223.673 127.213C221.386 125.812 220.043 124.071 219.635 122.271L219.518 122.3V142.566C219.323 144.911 220.705 147.285 223.673 149.095C229.637 152.744 239.561 152.821 245.622 149.319C248.347 147.752 249.816 145.729 250.04 143.666C250.118 142.965 250.896 142.469 251.879 142.275V120.383C250.906 120.578 250.118 121.084 250.04 121.774V121.784Z" fill="url(#paint38_linear_1014_33614)"/>
<g style="mix-blend-mode:color-dodge">
<path d="M235.715 110.76C236.493 110.157 236.522 109.252 235.452 108.639L211.05 94.551L209.367 95.524L235.462 110.585C235.559 110.644 235.647 110.702 235.725 110.76H235.715Z" fill="url(#paint39_radial_1014_33614)"/>
<path d="M256.066 71.4337C259.646 71.6283 263.149 72.5234 265.902 74.1093C268.617 75.6758 270.145 77.6703 270.514 79.7135C271.01 77.0282 269.483 74.2358 265.902 72.1634C263.149 70.5775 259.656 69.6824 256.066 69.4878C255.609 69.4586 255.219 69.3613 254.908 69.2153L254.752 69.3029C253.468 70.0423 254.246 71.3364 256.056 71.4337H256.066Z" fill="url(#paint40_radial_1014_33614)"/>
</g>
<path style="mix-blend-mode:color-dodge" d="M226.657 145.719C224.672 145.7 223.144 138.646 223.251 129.967C223.349 121.288 225.032 114.273 227.017 114.293C229.002 114.312 230.529 121.366 230.422 130.045C230.315 138.723 228.642 145.738 226.657 145.719Z" fill="url(#paint41_radial_1014_33614)"/>
<path style="mix-blend-mode:color-dodge" d="M254.786 119.799C253.093 118.826 250.184 119.429 250.038 120.811C249.814 122.874 248.345 124.888 245.621 126.464C239.559 129.967 229.635 129.889 223.671 126.24C221.316 124.8 219.954 123 219.594 121.142C219.137 123.642 220.499 126.25 223.671 128.186C229.635 131.835 239.559 131.913 245.621 128.41C248.345 126.843 249.814 124.82 250.038 122.757C250.184 121.385 253.093 120.772 254.786 121.745L280.696 136.699V134.754L254.786 119.799Z" fill="url(#paint42_radial_1014_33614)"/>
<path style="mix-blend-mode:color-dodge" d="M346.732 98.7833C348.6 97.7034 349.242 96.1953 348.678 94.804C348.376 95.5531 347.734 96.2537 346.732 96.8374L280.872 134.861L280.688 134.754V136.699L280.872 136.807L346.732 98.7833Z" fill="url(#paint43_radial_1014_33614)"/>
<path d="M230.509 140.844C225.401 145.251 214.805 146.263 207.391 142.926C201.427 140.241 199.579 134.782 203.354 131.027C205.494 128.896 208.841 127.466 212.577 126.833C214.348 126.532 214.679 125.17 213.142 124.576L182.883 112.823L162.48 130.414C161.156 131.552 158.092 131.27 157.469 129.947C156.477 127.797 154.073 125.851 150.454 124.605C143.663 122.27 134.78 123.34 130.216 127.038C125.215 131.095 127.054 136.738 134.206 139.511C137.416 140.756 141.143 141.214 144.694 140.961C147.058 140.786 148.683 142.323 147.36 143.461L126.957 161.052L204.687 191.263C208.082 192.586 212.675 192.07 214.942 190.114L266.771 145.427L236.473 133.654C234.955 133.07 232.912 133.751 233.107 134.792C233.486 136.865 232.659 139.005 230.509 140.863V140.844Z" fill="url(#paint44_linear_1014_33614)"/>
<path d="M214.942 190.095C212.675 192.051 208.082 192.566 204.687 191.243L126.957 161.033V182.924L204.687 213.134C208.082 214.458 212.675 213.942 214.942 211.986L266.771 167.299V145.407L214.942 190.095Z" fill="url(#paint45_linear_1014_33614)"/>
<path d="M144.691 140.941C141.14 141.204 137.414 140.747 134.203 139.492C130.146 137.915 127.801 135.415 127.441 132.807V153.405C127.227 155.244 128.005 157.083 129.689 158.669L147.348 143.442C148.671 142.303 147.056 140.766 144.682 140.941H144.691Z" fill="url(#paint46_linear_1014_33614)"/>
<path d="M212.588 126.824C208.852 127.466 205.505 128.886 203.364 131.017C199.589 134.773 201.438 140.231 207.402 142.916C209.435 143.831 211.712 144.415 214.047 144.697V125.919C213.882 126.327 213.386 126.687 212.588 126.824Z" fill="url(#paint47_linear_1014_33614)"/>
<g style="mix-blend-mode:color-dodge">
<path d="M233.162 135.328C233.123 135.415 233.113 135.513 233.113 135.62C233.133 135.522 233.152 135.425 233.162 135.328Z" fill="url(#paint48_radial_1014_33614)"/>
<path d="M203.352 130.054C201.737 131.659 201.163 133.576 201.484 135.464C201.688 134.247 202.292 133.051 203.352 132C205.493 129.869 208.84 128.439 212.576 127.806C214.269 127.515 214.629 126.259 213.305 125.637C213.101 125.734 212.868 125.812 212.576 125.86C208.84 126.503 205.493 127.923 203.352 130.054Z" fill="url(#paint49_radial_1014_33614)"/>
<path d="M134.212 140.465C137.423 141.71 141.15 142.167 144.701 141.914C145.781 141.836 146.705 142.119 147.269 142.556L147.367 142.479C148.69 141.34 147.075 139.803 144.701 139.978C141.15 140.241 137.423 139.784 134.212 138.528C130.282 137.001 127.966 134.607 127.499 132.097C126.876 135.279 129.28 138.558 134.212 140.474V140.465Z" fill="url(#paint50_radial_1014_33614)"/>
<path d="M214.94 189.122C212.673 191.078 208.08 191.593 204.685 190.27L128.502 160.673L126.945 162.016L204.675 192.216C208.07 193.539 212.663 193.024 214.93 191.068L266.759 146.38L265.202 145.777L214.93 189.122H214.94Z" fill="url(#paint51_radial_1014_33614)"/>
</g>
<path style="mix-blend-mode:color-dodge" d="M209.541 215.45C208.305 215.441 207.39 208.241 207.488 199.377C207.585 190.514 208.665 183.343 209.901 183.353C211.136 183.362 212.051 190.562 211.953 199.426C211.856 208.289 210.776 215.46 209.541 215.45Z" fill="url(#paint52_radial_1014_33614)"/>
<path style="mix-blend-mode:color-dodge" d="M133.106 152.374C131.87 152.364 130.927 147.227 131.004 140.922C131.073 134.607 132.133 129.499 133.369 129.519C134.604 129.538 135.548 134.666 135.47 140.971C135.402 147.285 134.342 152.393 133.106 152.374Z" fill="url(#paint53_radial_1014_33614)"/>
<path style="mix-blend-mode:color-dodge" d="M219.269 189.141C222.227 196.341 220.067 204.057 214.443 206.373C208.82 208.688 201.853 204.719 198.895 197.519C195.938 190.319 198.098 182.603 203.721 180.288C209.345 177.972 216.311 181.942 219.269 189.141Z" fill="url(#paint54_radial_1014_33614)"/>
<path style="mix-blend-mode:color-dodge" d="M209.017 233.149C208.239 233.149 207.451 233.003 206.692 232.711L126.773 201.547L127.124 200.642L207.042 231.806C208.901 232.536 211.002 232.176 212.52 230.891L266.451 185.094L267.084 185.834L213.153 231.631C211.975 232.633 210.506 233.149 209.017 233.149Z" fill="url(#paint55_radial_1014_33614)"/>
<path style="mix-blend-mode:screen" d="M217.639 244.417C224.087 239.855 225.616 230.929 221.053 224.48C216.491 218.032 207.565 216.503 201.117 221.065C194.669 225.628 193.14 234.554 197.702 241.002C202.264 247.45 211.19 248.979 217.639 244.417Z" fill="url(#paint56_radial_1014_33614)"/>
<path style="mix-blend-mode:color-dodge" d="M101.81 178.439L17.2695 129.626L17.756 128.78L102.296 177.593L101.81 178.439Z" fill="url(#paint57_radial_1014_33614)"/>
<path style="mix-blend-mode:color-dodge" d="M378.211 119.373L280.625 176.557L281.117 177.397L378.703 120.212L378.211 119.373Z" fill="url(#paint58_radial_1014_33614)"/>
<path style="mix-blend-mode:screen" d="M340.195 153.208C341.72 145.457 336.673 137.938 328.922 136.413C321.172 134.889 313.653 139.936 312.128 147.686C310.603 155.437 315.65 162.956 323.401 164.48C331.151 166.005 338.67 160.958 340.195 153.208Z" fill="url(#paint59_radial_1014_33614)"/>
<path style="mix-blend-mode:screen" d="M77.9601 158.997C79.7249 151.298 74.914 143.626 67.2146 141.861C59.5153 140.096 51.8431 144.907 50.0783 152.606C48.3135 160.306 53.1244 167.978 60.8237 169.743C68.5231 171.508 76.1953 166.697 77.9601 158.997Z" fill="url(#paint60_radial_1014_33614)"/>
<defs>
<linearGradient id="paint0_linear_1014_33614" x1="266.766" y1="-106.686" x2="177.604" y2="63.2315" gradientUnits="userSpaceOnUse">
<stop offset="0.04" stop-color="#6B24D6"/>
<stop offset="0.29" stop-color="#7733DC"/>
<stop offset="0.79" stop-color="#965BEC"/>
<stop offset="1" stop-color="#A56EF4"/>
</linearGradient>
<linearGradient id="paint1_linear_1014_33614" x1="205.302" y1="63.8737" x2="355.789" y2="-17.5337" gradientUnits="userSpaceOnUse">
<stop offset="0.04" stop-color="#6B24D6"/>
<stop offset="0.29" stop-color="#7733DC"/>
<stop offset="0.79" stop-color="#965BEC"/>
<stop offset="1" stop-color="#A56EF4"/>
</linearGradient>
<linearGradient id="paint2_linear_1014_33614" x1="195.652" y1="80.5888" x2="258.486" y2="157.919" gradientUnits="userSpaceOnUse">
<stop offset="0.04" stop-color="#6B24D6"/>
<stop offset="0.29" stop-color="#7733DC"/>
<stop offset="0.79" stop-color="#965BEC"/>
<stop offset="1" stop-color="#A56EF4"/>
</linearGradient>
<linearGradient id="paint3_linear_1014_33614" x1="212.815" y1="77.7479" x2="363.293" y2="-3.64958" gradientUnits="userSpaceOnUse">
<stop offset="0.04" stop-color="#6B24D6"/>
<stop offset="0.29" stop-color="#7733DC"/>
<stop offset="0.79" stop-color="#965BEC"/>
<stop offset="1" stop-color="#A56EF4"/>
</linearGradient>
<linearGradient id="paint4_linear_1014_33614" x1="218.588" y1="81.4548" x2="218.617" y2="81.4841" gradientUnits="userSpaceOnUse">
<stop offset="0.04" stop-color="#6B24D6"/>
<stop offset="0.29" stop-color="#7733DC"/>
<stop offset="0.79" stop-color="#965BEC"/>
<stop offset="1" stop-color="#A56EF4"/>
</linearGradient>
<linearGradient id="paint5_linear_1014_33614" x1="219.25" y1="81.2212" x2="219.269" y2="81.2407" gradientUnits="userSpaceOnUse">
<stop offset="0.04" stop-color="#6B24D6"/>
<stop offset="0.29" stop-color="#7733DC"/>
<stop offset="0.79" stop-color="#965BEC"/>
<stop offset="1" stop-color="#A56EF4"/>
</linearGradient>
<linearGradient id="paint6_linear_1014_33614" x1="25.9318" y1="103.405" x2="291.598" y2="43.8597" gradientUnits="userSpaceOnUse">
<stop offset="0.04" stop-color="#6B24D6"/>
<stop offset="0.29" stop-color="#7733DC"/>
<stop offset="0.79" stop-color="#965BEC"/>
<stop offset="1" stop-color="#A56EF4"/>
</linearGradient>
<linearGradient id="paint7_linear_1014_33614" x1="220.532" y1="73.4375" x2="252.971" y2="73.4375" gradientUnits="userSpaceOnUse">
<stop stop-color="#6B24D6"/>
<stop offset="0.07" stop-color="#712CD9"/>
<stop offset="0.16" stop-color="#7734DC"/>
<stop offset="0.32" stop-color="#8C4EE7"/>
<stop offset="0.48" stop-color="#A56EF4"/>
<stop offset="0.87" stop-color="#6B24D6"/>
</linearGradient>
<linearGradient id="paint8_linear_1014_33614" x1="85.9437" y1="62.6279" x2="169.803" y2="43.8303" gradientUnits="userSpaceOnUse">
<stop offset="0.04" stop-color="#6B24D6"/>
<stop offset="0.29" stop-color="#7733DC"/>
<stop offset="0.79" stop-color="#965BEC"/>
<stop offset="1" stop-color="#A56EF4"/>
</linearGradient>
<linearGradient id="paint9_linear_1014_33614" x1="138.875" y1="81.6883" x2="147.262" y2="79.8105" gradientUnits="userSpaceOnUse">
<stop offset="0.04" stop-color="#6B24D6"/>
<stop offset="0.29" stop-color="#7733DC"/>
<stop offset="0.79" stop-color="#965BEC"/>
<stop offset="1" stop-color="#A56EF4"/>
</linearGradient>
<linearGradient id="paint10_linear_1014_33614" x1="144.01" y1="81.4256" x2="145.615" y2="81.0656" gradientUnits="userSpaceOnUse">
<stop offset="0.04" stop-color="#6B24D6"/>
<stop offset="0.29" stop-color="#7733DC"/>
<stop offset="0.79" stop-color="#965BEC"/>
<stop offset="1" stop-color="#A56EF4"/>
</linearGradient>
<linearGradient id="paint11_linear_1014_33614" x1="166.843" y1="88.3048" x2="167.047" y2="88.2562" gradientUnits="userSpaceOnUse">
<stop offset="0.04" stop-color="#6B24D6"/>
<stop offset="0.29" stop-color="#7733DC"/>
<stop offset="0.79" stop-color="#965BEC"/>
<stop offset="1" stop-color="#A56EF4"/>
</linearGradient>
<linearGradient id="paint12_linear_1014_33614" x1="148.137" y1="64.1558" x2="177.608" y2="64.1558" gradientUnits="userSpaceOnUse">
<stop stop-color="#7C3ADF"/>
<stop offset="0.04" stop-color="#7633DC"/>
<stop offset="0.14" stop-color="#6D27D7"/>
<stop offset="0.25" stop-color="#6B24D6"/>
<stop offset="0.56" stop-color="#9A60EE"/>
<stop offset="0.97" stop-color="#7734DC"/>
</linearGradient>
<radialGradient id="paint13_radial_1014_33614" cx="0" cy="0" r="1" gradientUnits="userSpaceOnUse" gradientTransform="translate(245.584 38.314) scale(9.42794 9.42795)">
<stop stop-color="white"/>
<stop offset="0.07" stop-color="#D8D8D8"/>
<stop offset="0.16" stop-color="#A5A5A5"/>
<stop offset="0.26" stop-color="#797979"/>
<stop offset="0.37" stop-color="#545454"/>
<stop offset="0.47" stop-color="#353535"/>
<stop offset="0.59" stop-color="#1D1D1D"/>
<stop offset="0.7" stop-color="#0D0D0D"/>
<stop offset="0.84" stop-color="#030303"/>
<stop offset="1"/>
</radialGradient>
<radialGradient id="paint14_radial_1014_33614" cx="0" cy="0" r="1" gradientUnits="userSpaceOnUse" gradientTransform="translate(237.19 73.6323) scale(23.1661 23.1661)">
<stop stop-color="white"/>
<stop offset="0.07" stop-color="#D8D8D8"/>
<stop offset="0.16" stop-color="#A5A5A5"/>
<stop offset="0.26" stop-color="#797979"/>
<stop offset="0.37" stop-color="#545454"/>
<stop offset="0.47" stop-color="#353535"/>
<stop offset="0.59" stop-color="#1D1D1D"/>
<stop offset="0.7" stop-color="#0D0D0D"/>
<stop offset="0.84" stop-color="#030303"/>
<stop offset="1"/>
</radialGradient>
<radialGradient id="paint15_radial_1014_33614" cx="0" cy="0" r="1" gradientUnits="userSpaceOnUse" gradientTransform="translate(129.744 53.862) scale(12.9793 12.9792)">
<stop stop-color="white"/>
<stop offset="0.07" stop-color="#D8D8D8"/>
<stop offset="0.16" stop-color="#A5A5A5"/>
<stop offset="0.26" stop-color="#797979"/>
<stop offset="0.37" stop-color="#545454"/>
<stop offset="0.47" stop-color="#353535"/>
<stop offset="0.59" stop-color="#1D1D1D"/>
<stop offset="0.7" stop-color="#0D0D0D"/>
<stop offset="0.84" stop-color="#030303"/>
<stop offset="1"/>
</radialGradient>
<radialGradient id="paint16_radial_1014_33614" cx="0" cy="0" r="1" gradientUnits="userSpaceOnUse" gradientTransform="translate(162.758 51.4491) scale(11.8214 11.8214)">
<stop stop-color="white"/>
<stop offset="0.07" stop-color="#D8D8D8"/>
<stop offset="0.16" stop-color="#A5A5A5"/>
<stop offset="0.26" stop-color="#797979"/>
<stop offset="0.37" stop-color="#545454"/>
<stop offset="0.47" stop-color="#353535"/>
<stop offset="0.59" stop-color="#1D1D1D"/>
<stop offset="0.7" stop-color="#0D0D0D"/>
<stop offset="0.84" stop-color="#030303"/>
<stop offset="1"/>
</radialGradient>
<radialGradient id="paint17_radial_1014_33614" cx="0" cy="0" r="1" gradientUnits="userSpaceOnUse" gradientTransform="translate(328.53 71.4806) rotate(90.65) scale(13.8829 3.35632)">
<stop stop-color="#4916A1"/>
<stop offset="0.07" stop-color="#3E128A"/>
<stop offset="0.22" stop-color="#2B0D60"/>
<stop offset="0.37" stop-color="#1B083D"/>
<stop offset="0.52" stop-color="#0F0422"/>
<stop offset="0.68" stop-color="#06020F"/>
<stop offset="0.83" stop-color="#010003"/>
<stop offset="1"/>
</radialGradient>
<radialGradient id="paint18_radial_1014_33614" cx="0" cy="0" r="1" gradientUnits="userSpaceOnUse" gradientTransform="translate(256.276 50.1008) rotate(90.65) scale(0.442695 0.107026)">
<stop stop-color="#4916A1"/>
<stop offset="0.07" stop-color="#3E128A"/>
<stop offset="0.22" stop-color="#2B0D60"/>
<stop offset="0.37" stop-color="#1B083D"/>
<stop offset="0.52" stop-color="#0F0422"/>
<stop offset="0.68" stop-color="#06020F"/>
<stop offset="0.83" stop-color="#010003"/>
<stop offset="1"/>
</radialGradient>
<linearGradient id="paint19_linear_1014_33614" x1="194.551" y1="-77.1564" x2="94.9394" y2="112.687" gradientUnits="userSpaceOnUse">
<stop offset="0.04" stop-color="#138BBD"/>
<stop offset="0.23" stop-color="#169AC6"/>
<stop offset="0.59" stop-color="#1EC2DF"/>
<stop offset="1" stop-color="#2AF6FF"/>
</linearGradient>
<linearGradient id="paint20_linear_1014_33614" x1="151.535" y1="84.7047" x2="186.026" y2="74.3719" gradientUnits="userSpaceOnUse">
<stop offset="0.04" stop-color="#138BBD"/>
<stop offset="0.23" stop-color="#169AC6"/>
<stop offset="0.59" stop-color="#1EC2DF"/>
<stop offset="1" stop-color="#2AF6FF"/>
</linearGradient>
<linearGradient id="paint21_linear_1014_33614" x1="-238.884" y1="115.625" x2="-237.911" y2="115.625" gradientUnits="userSpaceOnUse">
<stop stop-color="#1BB0D4"/>
<stop offset="0.11" stop-color="#1EBFDD"/>
<stop offset="0.24" stop-color="#23D8EC"/>
<stop offset="0.37" stop-color="#1EBFDD"/>
<stop offset="0.44" stop-color="#1BB0D4"/>
<stop offset="0.5" stop-color="#1BB0D4"/>
<stop offset="0.51" stop-color="#1BB0D4"/>
<stop offset="0.55" stop-color="#20C6E2"/>
<stop offset="0.56" stop-color="#1AAFD3"/>
<stop offset="0.58" stop-color="#169BC7"/>
<stop offset="0.61" stop-color="#138FBF"/>
<stop offset="0.63" stop-color="#138BBD"/>
</linearGradient>
<linearGradient id="paint22_linear_1014_33614" x1="-30.068" y1="150.399" x2="170.021" y2="105.545" gradientUnits="userSpaceOnUse">
<stop offset="0.04" stop-color="#138BBD"/>
<stop offset="0.23" stop-color="#169AC6"/>
<stop offset="0.59" stop-color="#1EC2DF"/>
<stop offset="1" stop-color="#2AF6FF"/>
</linearGradient>
<linearGradient id="paint23_linear_1014_33614" x1="107.499" y1="129.607" x2="140.006" y2="178.507" gradientUnits="userSpaceOnUse">
<stop offset="0.04" stop-color="#138BBD"/>
<stop offset="0.23" stop-color="#169AC6"/>
<stop offset="0.59" stop-color="#1EC2DF"/>
<stop offset="1" stop-color="#2AF6FF"/>
</linearGradient>
<linearGradient id="paint24_linear_1014_33614" x1="119.272" y1="147.314" x2="132.475" y2="167.172" gradientUnits="userSpaceOnUse">
<stop offset="0.04" stop-color="#138BBD"/>
<stop offset="0.23" stop-color="#169AC6"/>
<stop offset="0.59" stop-color="#1EC2DF"/>
<stop offset="1" stop-color="#2AF6FF"/>
</linearGradient>
<radialGradient id="paint25_radial_1014_33614" cx="0" cy="0" r="1" gradientUnits="userSpaceOnUse" gradientTransform="translate(67.8401 114.555) scale(50.3505)">
<stop stop-color="white"/>
<stop offset="0.07" stop-color="#D8D8D8"/>
<stop offset="0.16" stop-color="#A5A5A5"/>
<stop offset="0.26" stop-color="#797979"/>
<stop offset="0.37" stop-color="#545454"/>
<stop offset="0.47" stop-color="#353535"/>
<stop offset="0.59" stop-color="#1D1D1D"/>
<stop offset="0.7" stop-color="#0D0D0D"/>
<stop offset="0.84" stop-color="#030303"/>
<stop offset="1"/>
</radialGradient>
<radialGradient id="paint26_radial_1014_33614" cx="0" cy="0" r="1" gradientUnits="userSpaceOnUse" gradientTransform="translate(154.597 75.6851) scale(6.9761 6.97611)">
<stop stop-color="white"/>
<stop offset="0.07" stop-color="#D8D8D8"/>
<stop offset="0.16" stop-color="#A5A5A5"/>
<stop offset="0.26" stop-color="#797979"/>
<stop offset="0.37" stop-color="#545454"/>
<stop offset="0.47" stop-color="#353535"/>
<stop offset="0.59" stop-color="#1D1D1D"/>
<stop offset="0.7" stop-color="#0D0D0D"/>
<stop offset="0.84" stop-color="#030303"/>
<stop offset="1"/>
</radialGradient>
<radialGradient id="paint27_radial_1014_33614" cx="0" cy="0" r="1" gradientUnits="userSpaceOnUse" gradientTransform="translate(130.332 100.787) scale(22.3877 22.3877)">
<stop stop-color="white"/>
<stop offset="0.07" stop-color="#D8D8D8"/>
<stop offset="0.16" stop-color="#A5A5A5"/>
<stop offset="0.26" stop-color="#797979"/>
<stop offset="0.37" stop-color="#545454"/>
<stop offset="0.47" stop-color="#353535"/>
<stop offset="0.59" stop-color="#1D1D1D"/>
<stop offset="0.7" stop-color="#0D0D0D"/>
<stop offset="0.84" stop-color="#030303"/>
<stop offset="1"/>
</radialGradient>
<radialGradient id="paint28_radial_1014_33614" cx="0" cy="0" r="1" gradientUnits="userSpaceOnUse" gradientTransform="translate(113.159 113.434) rotate(90.65) scale(14.0355 2.74608)">
<stop stop-color="#972A74"/>
<stop offset="0.04" stop-color="#8A266A"/>
<stop offset="0.19" stop-color="#601A49"/>
<stop offset="0.35" stop-color="#3D112F"/>
<stop offset="0.51" stop-color="#22091A"/>
<stop offset="0.67" stop-color="#0F040B"/>
<stop offset="0.83" stop-color="#030102"/>
<stop offset="1"/>
</radialGradient>
<radialGradient id="paint29_radial_1014_33614" cx="0" cy="0" r="1" gradientUnits="userSpaceOnUse" gradientTransform="translate(132.605 110.611) rotate(-22.34) scale(8.62623 17.2525)">
<stop stop-color="#972A74"/>
<stop offset="0.04" stop-color="#8A266A"/>
<stop offset="0.19" stop-color="#601A49"/>
<stop offset="0.35" stop-color="#3D112F"/>
<stop offset="0.51" stop-color="#22091A"/>
<stop offset="0.67" stop-color="#0F040B"/>
<stop offset="0.83" stop-color="#030102"/>
<stop offset="1"/>
</radialGradient>
<linearGradient id="paint30_linear_1014_33614" x1="209.359" y1="94.6677" x2="348.881" y2="94.6677" gradientUnits="userSpaceOnUse">
<stop offset="0.04" stop-color="#9F19AB"/>
<stop offset="0.24" stop-color="#AE24B0"/>
<stop offset="0.65" stop-color="#D643BF"/>
<stop offset="1" stop-color="#FF63CE"/>
</linearGradient>
<linearGradient id="paint31_linear_1014_33614" x1="362.425" y1="-63.7686" x2="262.814" y2="126.075" gradientUnits="userSpaceOnUse">
<stop offset="0.04" stop-color="#9F19AB"/>
<stop offset="0.24" stop-color="#AE24B0"/>
<stop offset="0.65" stop-color="#D643BF"/>
<stop offset="1" stop-color="#FF63CE"/>
</linearGradient>
<linearGradient id="paint32_linear_1014_33614" x1="281.298" y1="79.013" x2="248.431" y2="79.013" gradientUnits="userSpaceOnUse">
<stop stop-color="#9F19AB"/>
<stop offset="0.14" stop-color="#AE24B0"/>
<stop offset="0.4" stop-color="#D643BF"/>
<stop offset="0.63" stop-color="#FF63CE"/>
<stop offset="0.87" stop-color="#DC48C1"/>
</linearGradient>
<linearGradient id="paint33_linear_1014_33614" x1="306.324" y1="108.406" x2="331.942" y2="161.597" gradientUnits="userSpaceOnUse">
<stop offset="0.04" stop-color="#9F19AB"/>
<stop offset="0.24" stop-color="#AE24B0"/>
<stop offset="0.65" stop-color="#D643BF"/>
<stop offset="1" stop-color="#FF63CE"/>
</linearGradient>
<linearGradient id="paint34_linear_1014_33614" x1="292.264" y1="132.983" x2="445.349" y2="87.1466" gradientUnits="userSpaceOnUse">
<stop offset="0.04" stop-color="#9F19AB"/>
<stop offset="0.24" stop-color="#AE24B0"/>
<stop offset="0.65" stop-color="#D643BF"/>
<stop offset="1" stop-color="#FF63CE"/>
</linearGradient>
<linearGradient id="paint35_linear_1014_33614" x1="178.283" y1="116.53" x2="266.277" y2="96.7985" gradientUnits="userSpaceOnUse">
<stop offset="0.04" stop-color="#9F19AB"/>
<stop offset="0.24" stop-color="#AE24B0"/>
<stop offset="0.65" stop-color="#D643BF"/>
<stop offset="1" stop-color="#FF63CE"/>
</linearGradient>
<linearGradient id="paint36_linear_1014_33614" x1="242.556" y1="144.396" x2="295.65" y2="132.496" gradientUnits="userSpaceOnUse">
<stop offset="0.04" stop-color="#9F19AB"/>
<stop offset="0.24" stop-color="#AE24B0"/>
<stop offset="0.65" stop-color="#D643BF"/>
<stop offset="1" stop-color="#FF63CE"/>
</linearGradient>
<linearGradient id="paint37_linear_1014_33614" x1="239.648" y1="140.523" x2="265.266" y2="193.715" gradientUnits="userSpaceOnUse">
<stop offset="0.04" stop-color="#9F19AB"/>
<stop offset="0.24" stop-color="#AE24B0"/>
<stop offset="0.65" stop-color="#D643BF"/>
<stop offset="1" stop-color="#FF63CE"/>
</linearGradient>
<linearGradient id="paint38_linear_1014_33614" x1="255.887" y1="136.135" x2="218.545" y2="136.135" gradientUnits="userSpaceOnUse">
<stop stop-color="#9F19AB"/>
<stop offset="0.17" stop-color="#AE24B0"/>
<stop offset="0.49" stop-color="#D643BF"/>
<stop offset="0.77" stop-color="#FF63CE"/>
<stop offset="0.92" stop-color="#DC48C1"/>
</linearGradient>
<radialGradient id="paint39_radial_1014_33614" cx="0" cy="0" r="1" gradientUnits="userSpaceOnUse" gradientTransform="translate(228.009 102.325) scale(15.1003 15.1003)">
<stop stop-color="white"/>
<stop offset="0.07" stop-color="#D8D8D8"/>
<stop offset="0.16" stop-color="#A5A5A5"/>
<stop offset="0.26" stop-color="#797979"/>
<stop offset="0.37" stop-color="#545454"/>
<stop offset="0.47" stop-color="#353535"/>
<stop offset="0.59" stop-color="#1D1D1D"/>
<stop offset="0.7" stop-color="#0D0D0D"/>
<stop offset="0.84" stop-color="#030303"/>
<stop offset="1"/>
</radialGradient>
<radialGradient id="paint40_radial_1014_33614" cx="0" cy="0" r="1" gradientUnits="userSpaceOnUse" gradientTransform="translate(267.06 71.0639) scale(10.8582 10.8582)">
<stop stop-color="white"/>
<stop offset="0.07" stop-color="#D8D8D8"/>
<stop offset="0.16" stop-color="#A5A5A5"/>
<stop offset="0.26" stop-color="#797979"/>
<stop offset="0.37" stop-color="#545454"/>
<stop offset="0.47" stop-color="#353535"/>
<stop offset="0.59" stop-color="#1D1D1D"/>
<stop offset="0.7" stop-color="#0D0D0D"/>
<stop offset="0.84" stop-color="#030303"/>
<stop offset="1"/>
</radialGradient>
<radialGradient id="paint41_radial_1014_33614" cx="0" cy="0" r="1" gradientUnits="userSpaceOnUse" gradientTransform="translate(79.7399 129.728) rotate(90.65) scale(15.7136 3.66143)">
<stop stop-color="#AD3185"/>
<stop offset="0.1" stop-color="#8A276A"/>
<stop offset="0.24" stop-color="#601B4A"/>
<stop offset="0.39" stop-color="#3D112F"/>
<stop offset="0.54" stop-color="#22091A"/>
<stop offset="0.69" stop-color="#0F040B"/>
<stop offset="0.84" stop-color="#030102"/>
<stop offset="1"/>
</radialGradient>
<radialGradient id="paint42_radial_1014_33614" cx="0" cy="0" r="1" gradientUnits="userSpaceOnUse" gradientTransform="translate(230.19 135.59) scale(35.0946 35.0945)">
<stop stop-color="white"/>
<stop offset="0.07" stop-color="#D8D8D8"/>
<stop offset="0.16" stop-color="#A5A5A5"/>
<stop offset="0.26" stop-color="#797979"/>
<stop offset="0.37" stop-color="#545454"/>
<stop offset="0.47" stop-color="#353535"/>
<stop offset="0.59" stop-color="#1D1D1D"/>
<stop offset="0.7" stop-color="#0D0D0D"/>
<stop offset="0.84" stop-color="#030303"/>
<stop offset="1"/>
</radialGradient>
<radialGradient id="paint43_radial_1014_33614" cx="0" cy="0" r="1" gradientUnits="userSpaceOnUse" gradientTransform="translate(325.473 118.135) scale(37.4588)">
<stop stop-color="white"/>
<stop offset="0.07" stop-color="#D8D8D8"/>
<stop offset="0.16" stop-color="#A5A5A5"/>
<stop offset="0.26" stop-color="#797979"/>
<stop offset="0.37" stop-color="#545454"/>
<stop offset="0.47" stop-color="#353535"/>
<stop offset="0.59" stop-color="#1D1D1D"/>
<stop offset="0.7" stop-color="#0D0D0D"/>
<stop offset="0.84" stop-color="#030303"/>
<stop offset="1"/>
</radialGradient>
<linearGradient id="paint44_linear_1014_33614" x1="265.827" y1="7.09153" x2="180.187" y2="170.305" gradientUnits="userSpaceOnUse">
<stop offset="0.04" stop-color="#FFA98C"/>
<stop offset="0.32" stop-color="#FEB892"/>
<stop offset="0.86" stop-color="#FEE0A3"/>
<stop offset="1" stop-color="#FEECA8"/>
</linearGradient>
<linearGradient id="paint45_linear_1014_33614" x1="-238.885" y1="179.636" x2="-237.912" y2="179.636" gradientUnits="userSpaceOnUse">
<stop offset="0.07" stop-color="#FCCE9E"/>
<stop offset="0.52" stop-color="#FAC099"/>
<stop offset="0.59" stop-color="#FFE4A7"/>
<stop offset="0.61" stop-color="#FCD4A0"/>
<stop offset="0.64" stop-color="#F9BD97"/>
<stop offset="0.67" stop-color="#F7AE91"/>
<stop offset="0.7" stop-color="#F7AA90"/>
<stop offset="1" stop-color="#F9B695"/>
</linearGradient>
<linearGradient id="paint46_linear_1014_33614" x1="101.307" y1="151.848" x2="173.452" y2="135.678" gradientUnits="userSpaceOnUse">
<stop offset="0.04" stop-color="#FFA98C"/>
<stop offset="0.32" stop-color="#FEB892"/>
<stop offset="0.86" stop-color="#FEE0A3"/>
<stop offset="1" stop-color="#FEECA8"/>
</linearGradient>
<linearGradient id="paint47_linear_1014_33614" x1="214.368" y1="135.317" x2="173.183" y2="135.317" gradientUnits="userSpaceOnUse">
<stop offset="0.04" stop-color="#F7AA90"/>
<stop offset="0.23" stop-color="#F9B996"/>
<stop offset="0.61" stop-color="#FEE1A6"/>
<stop offset="0.63" stop-color="#FFE4A7"/>
<stop offset="0.87" stop-color="#F7AA90"/>
</linearGradient>
<radialGradient id="paint48_radial_1014_33614" cx="0" cy="0" r="1" gradientUnits="userSpaceOnUse" gradientTransform="translate(233.142 135.464) scale(0.107064 0.107026)">
<stop stop-color="white"/>
<stop offset="0.07" stop-color="#D8D8D8"/>
<stop offset="0.16" stop-color="#A5A5A5"/>
<stop offset="0.26" stop-color="#797979"/>
<stop offset="0.37" stop-color="#545454"/>
<stop offset="0.47" stop-color="#353535"/>
<stop offset="0.59" stop-color="#1D1D1D"/>
<stop offset="0.7" stop-color="#0D0D0D"/>
<stop offset="0.84" stop-color="#030303"/>
<stop offset="1"/>
</radialGradient>
<radialGradient id="paint49_radial_1014_33614" cx="0" cy="0" r="1" gradientUnits="userSpaceOnUse" gradientTransform="translate(207.76 130.54) scale(5.68208 5.68206)">
<stop stop-color="white"/>
<stop offset="0.07" stop-color="#D8D8D8"/>
<stop offset="0.16" stop-color="#A5A5A5"/>
<stop offset="0.26" stop-color="#797979"/>
<stop offset="0.37" stop-color="#545454"/>
<stop offset="0.47" stop-color="#353535"/>
<stop offset="0.59" stop-color="#1D1D1D"/>
<stop offset="0.7" stop-color="#0D0D0D"/>
<stop offset="0.84" stop-color="#030303"/>
<stop offset="1"/>
</radialGradient>
<radialGradient id="paint50_radial_1014_33614" cx="0" cy="0" r="1" gradientUnits="userSpaceOnUse" gradientTransform="translate(136.158 138.295) scale(8.11445 8.11446)">
<stop stop-color="white"/>
<stop offset="0.07" stop-color="#D8D8D8"/>
<stop offset="0.16" stop-color="#A5A5A5"/>
<stop offset="0.26" stop-color="#797979"/>
<stop offset="0.37" stop-color="#545454"/>
<stop offset="0.47" stop-color="#353535"/>
<stop offset="0.59" stop-color="#1D1D1D"/>
<stop offset="0.7" stop-color="#0D0D0D"/>
<stop offset="0.84" stop-color="#030303"/>
<stop offset="1"/>
</radialGradient>
<radialGradient id="paint51_radial_1014_33614" cx="0" cy="0" r="1" gradientUnits="userSpaceOnUse" gradientTransform="translate(175.292 171.307) scale(52.1699 52.17)">
<stop stop-color="white"/>
<stop offset="0.07" stop-color="#D8D8D8"/>
<stop offset="0.16" stop-color="#A5A5A5"/>
<stop offset="0.26" stop-color="#797979"/>
<stop offset="0.37" stop-color="#545454"/>
<stop offset="0.47" stop-color="#353535"/>
<stop offset="0.59" stop-color="#1D1D1D"/>
<stop offset="0.7" stop-color="#0D0D0D"/>
<stop offset="0.84" stop-color="#030303"/>
<stop offset="1"/>
</radialGradient>
<radialGradient id="paint52_radial_1014_33614" cx="0" cy="0" r="1" gradientUnits="userSpaceOnUse" gradientTransform="translate(195.735 197.885) rotate(90.65) scale(16.0529 2.23994)">
<stop stop-color="#972A74"/>
<stop offset="0.04" stop-color="#8A266A"/>
<stop offset="0.19" stop-color="#601A49"/>
<stop offset="0.35" stop-color="#3D112F"/>
<stop offset="0.51" stop-color="#22091A"/>
<stop offset="0.67" stop-color="#0F040B"/>
<stop offset="0.83" stop-color="#030102"/>
<stop offset="1"/>
</radialGradient>
<radialGradient id="paint53_radial_1014_33614" cx="0" cy="0" r="1" gradientUnits="userSpaceOnUse" gradientTransform="translate(119.143 137.259) rotate(90.65) scale(11.4486 2.23994)">
<stop stop-color="#972A74"/>
<stop offset="0.04" stop-color="#8A266A"/>
<stop offset="0.19" stop-color="#601A49"/>
<stop offset="0.35" stop-color="#3D112F"/>
<stop offset="0.51" stop-color="#22091A"/>
<stop offset="0.67" stop-color="#0F040B"/>
<stop offset="0.83" stop-color="#030102"/>
<stop offset="1"/>
</radialGradient>
<radialGradient id="paint54_radial_1014_33614" cx="0" cy="0" r="1" gradientUnits="userSpaceOnUse" gradientTransform="translate(211.577 198.297) rotate(-22.35) scale(11.0497 14.0246)">
<stop stop-color="#972A74"/>
<stop offset="0.04" stop-color="#8A266A"/>
<stop offset="0.19" stop-color="#601A49"/>
<stop offset="0.35" stop-color="#3D112F"/>
<stop offset="0.51" stop-color="#22091A"/>
<stop offset="0.67" stop-color="#0F040B"/>
<stop offset="0.83" stop-color="#030102"/>
<stop offset="1"/>
</radialGradient>
<radialGradient id="paint55_radial_1014_33614" cx="0" cy="0" r="1" gradientUnits="userSpaceOnUse" gradientTransform="translate(208.93 216.9) scale(52.4327 52.4327)">
<stop stop-color="#FA45C1"/>
<stop offset="0.21" stop-color="#CB389D"/>
<stop offset="0.67" stop-color="#571843"/>
<stop offset="1"/>
</radialGradient>
<radialGradient id="paint56_radial_1014_33614" cx="0" cy="0" r="1" gradientUnits="userSpaceOnUse" gradientTransform="translate(209.383 232.725) scale(14.3025 14.3025)">
<stop offset="0.09" stop-color="#B8109B"/>
<stop offset="0.13" stop-color="#5B0663"/>
<stop offset="0.15" stop-color="#500557"/>
<stop offset="0.21" stop-color="#37033C"/>
<stop offset="0.29" stop-color="#230226"/>
<stop offset="0.37" stop-color="#130114"/>
<stop offset="0.48" stop-color="#080008"/>
<stop offset="0.62" stop-color="#010001"/>
<stop offset="1"/>
</radialGradient>
<radialGradient id="paint57_radial_1014_33614" cx="0" cy="0" r="1" gradientUnits="userSpaceOnUse" gradientTransform="translate(65.645 140.397) scale(43.0242 43.0241)">
<stop stop-color="#FA45C1"/>
<stop offset="0.21" stop-color="#CB389D"/>
<stop offset="0.67" stop-color="#571843"/>
<stop offset="1"/>
</radialGradient>
<radialGradient id="paint58_radial_1014_33614" cx="0" cy="0" r="1" gradientUnits="userSpaceOnUse" gradientTransform="translate(325.324 140.789) scale(43.6858 43.6858)">
<stop stop-color="#FA45C1"/>
<stop offset="0.21" stop-color="#CB389D"/>
<stop offset="0.67" stop-color="#571843"/>
<stop offset="1"/>
</radialGradient>
<radialGradient id="paint59_radial_1014_33614" cx="0" cy="0" r="1" gradientUnits="userSpaceOnUse" gradientTransform="translate(326.172 150.421) scale(14.3025 14.3024)">
<stop offset="0.09" stop-color="#B8109B"/>
<stop offset="0.13" stop-color="#5B0663"/>
<stop offset="0.15" stop-color="#500557"/>
<stop offset="0.21" stop-color="#37033C"/>
<stop offset="0.29" stop-color="#230226"/>
<stop offset="0.37" stop-color="#130114"/>
<stop offset="0.48" stop-color="#080008"/>
<stop offset="0.62" stop-color="#010001"/>
<stop offset="1"/>
</radialGradient>
<radialGradient id="paint60_radial_1014_33614" cx="0" cy="0" r="1" gradientUnits="userSpaceOnUse" gradientTransform="translate(64.0303 155.777) scale(14.3025)">
<stop offset="0.09" stop-color="#B8109B"/>
<stop offset="0.13" stop-color="#5B0663"/>
<stop offset="0.15" stop-color="#500557"/>
<stop offset="0.21" stop-color="#37033C"/>
<stop offset="0.29" stop-color="#230226"/>
<stop offset="0.37" stop-color="#130114"/>
<stop offset="0.48" stop-color="#080008"/>
<stop offset="0.62" stop-color="#010001"/>
<stop offset="1"/>
</radialGradient>
</defs>
</svg>
