<svg width="46" height="46" viewBox="0 0 46 46" fill="none" xmlns="http://www.w3.org/2000/svg">
<path d="M37.375 7.1875H8.625C7.8625 7.1875 7.13123 7.4904 6.59207 8.02957C6.0529 8.56873 5.75 9.3 5.75 10.0625V20.6245C5.75 36.7263 19.3739 42.0684 22.1016 42.9759C22.6841 43.174 23.3159 43.174 23.8984 42.9759C26.6297 42.0684 40.25 36.7263 40.25 20.6245V10.0625C40.25 9.3 39.9471 8.56873 39.4079 8.02957C38.8688 7.4904 38.1375 7.1875 37.375 7.1875ZM37.375 20.6263C37.375 34.7174 25.4527 39.4252 23 40.2446C20.5688 39.4342 8.625 34.73 8.625 20.6263V10.0625H37.375V20.6263ZM14.7955 25.4545C14.5257 25.1848 14.3742 24.819 14.3742 24.4375C14.3742 24.056 14.5257 23.6902 14.7955 23.4205C15.0652 23.1507 15.431 22.9992 15.8125 22.9992C16.194 22.9992 16.5598 23.1507 16.8295 23.4205L20.125 26.7159L29.1705 17.6705C29.304 17.5369 29.4626 17.431 29.6371 17.3587C29.8116 17.2864 29.9986 17.2492 30.1875 17.2492C30.3764 17.2492 30.5634 17.2864 30.7379 17.3587C30.9124 17.431 31.071 17.5369 31.2045 17.6705C31.3381 17.804 31.444 17.9626 31.5163 18.1371C31.5886 18.3116 31.6258 18.4986 31.6258 18.6875C31.6258 18.8764 31.5886 19.0634 31.5163 19.2379C31.444 19.4124 31.3381 19.571 31.2045 19.7045L21.142 29.767C21.0085 29.9007 20.85 30.0067 20.6755 30.0791C20.501 30.1514 20.3139 30.1886 20.125 30.1886C19.9361 30.1886 19.749 30.1514 19.5745 30.0791C19.4 30.0067 19.2415 29.9007 19.108 29.767L14.7955 25.4545Z" fill="#FEDDA2"/>
</svg>
