<svg width="60" height="60" viewBox="0 0 60 60" fill="none" xmlns="http://www.w3.org/2000/svg">
<g clip-path="url(#clip0_1040_2300)">
<path d="M26.764 78.996C23.2469 78.996 19.7437 78.996 16.2266 78.996C16.2266 69.0007 16.2266 34.0242 16.2266 24.0289C16.2266 23.9038 16.2405 23.7926 16.2405 23.6675C16.6992 23.8482 17.0051 24.1957 17.2553 24.5989C17.714 25.3913 17.867 26.2532 17.8809 27.1429C17.9087 28.5469 17.8948 29.951 17.8809 31.369C17.8809 31.786 18.006 32.0919 18.284 32.3977C19.1737 33.343 20.0495 34.3161 20.9114 35.2892C21.1755 35.5812 21.4814 35.7063 21.8706 35.7063C23.2747 35.6924 24.6788 35.6924 26.0967 35.7063C26.5277 35.7063 26.8613 35.5812 27.2089 35.3449C29.447 33.7879 31.6852 32.2309 33.9373 30.7017C34.3821 30.3959 34.5767 30.0483 34.5767 29.4923C34.5906 27.838 34.4655 26.1976 34.6601 24.5433C34.8687 22.8056 35.814 21.7768 37.3849 21.6239C37.7324 21.5961 37.9131 21.6378 37.9131 22.0688C37.8992 25.4608 37.8992 28.8389 37.9131 32.2309C37.9131 32.495 37.8436 32.6896 37.6351 32.8565C36.0086 34.2466 34.396 35.6368 32.7834 37.027C32.1161 37.6108 31.435 38.1808 30.7816 38.7786C30.3367 39.1817 30.2811 39.6266 30.6009 40.0158C30.9067 40.3772 31.4072 40.3912 31.852 40.0436C32.0049 39.9324 32.1439 39.8073 32.2969 39.6822C34.4933 37.7915 36.662 35.8731 38.8723 33.9964C39.3728 33.5793 39.6786 33.1484 39.5674 32.495C39.4562 31.8555 39.7203 31.4385 40.2625 31.0909C41.5971 30.1873 42.7648 29.0613 44.2106 28.2967C45.6424 27.546 47.0604 27.7685 47.9362 28.8389C48.2003 29.1586 48.1308 29.3115 47.8389 29.534C44.5859 31.9946 41.3468 34.469 38.0938 36.9296C36.9956 37.7637 35.9113 38.5839 34.827 39.418C34.4099 39.7378 34.3265 40.2938 34.6184 40.6553C34.8965 41.0028 35.4108 41.0445 35.8279 40.7526C35.9669 40.6553 36.1059 40.5441 36.2449 40.4468C39.7342 37.7915 43.2375 35.1363 46.7268 32.4811C46.9909 32.2865 47.2411 32.2031 47.5887 32.2587C48.4784 32.3977 49.0205 32.9816 49.4654 33.6906C49.6322 33.9547 49.5905 34.1076 49.2986 34.2466C48.5757 34.5942 47.8806 34.9834 47.1716 35.3449C44.3913 36.8045 41.611 38.2642 38.8306 39.7239C38.3163 40.0019 38.1634 40.4329 38.4136 40.8916C38.636 41.3226 39.067 41.4338 39.5813 41.1974C39.9289 41.0306 40.2625 40.8638 40.61 40.7109C41.4024 40.7109 42.1809 40.7109 42.9733 40.7109C43.1262 41.3643 43.3348 41.5311 44.0159 41.5589C44.9335 41.5867 45.851 41.6562 46.699 42.0871C47.255 42.3652 47.6443 42.7822 47.7972 43.3939C47.9362 43.9778 47.8667 44.0612 47.2828 44.0612C43.1819 44.0612 39.0809 44.0612 34.9799 44.0612C34.5489 44.0612 34.2153 44.1724 33.8956 44.4504C31.4628 46.494 29.03 48.5375 26.5972 50.5811C26.3609 50.7896 26.2357 51.0398 26.2496 51.3595C26.2635 51.9156 26.2775 77.4529 26.2496 78.009C26.194 78.426 26.3609 78.7597 26.764 78.996Z" fill="#65C6E9"/>
<path d="M40.5797 40.683C40.2322 40.8498 39.8985 41.0167 39.551 41.1696C39.0366 41.4059 38.6196 41.2947 38.3833 40.8637C38.1469 40.405 38.2859 39.974 38.8003 39.696C41.5806 38.2363 44.361 36.7767 47.1413 35.317C47.8503 34.9416 48.5454 34.5663 49.2682 34.2188C49.5602 34.0797 49.6019 33.9268 49.4351 33.6627C48.9902 32.9537 48.448 32.3698 47.5583 32.2308C47.2108 32.1752 46.9606 32.2586 46.6964 32.4532C43.2071 35.1085 39.7039 37.7637 36.2146 40.4189C36.0756 40.5301 35.9366 40.6274 35.7975 40.7247C35.3666 41.0167 34.8661 40.975 34.5881 40.6274C34.2962 40.266 34.3796 39.7238 34.7966 39.3902C35.881 38.5561 36.9792 37.722 38.0635 36.9018C41.3165 34.4273 44.5556 31.9667 47.8086 29.5061C48.1144 29.2837 48.17 29.1307 47.9059 28.811C47.0301 27.7406 45.6121 27.5043 44.1802 28.2688C42.7484 29.0334 41.5667 30.1595 40.2322 31.0631C39.7039 31.4245 39.4259 31.8277 39.5371 32.4671C39.6483 33.1205 39.3425 33.5515 38.842 33.9685C36.6316 35.8452 34.4491 37.7498 32.2665 39.6543C32.1275 39.7794 31.9746 39.9045 31.8217 40.0157C31.3768 40.3633 30.8764 40.3633 30.5705 39.9879C30.2508 39.6126 30.3064 39.1538 30.7512 38.7507C31.4046 38.1529 32.0858 37.5829 32.7531 36.9991C34.3657 35.6089 35.9922 34.2188 37.6048 32.8286C37.8133 32.6479 37.8828 32.4671 37.8828 32.203C37.8689 28.811 37.8689 25.4329 37.8828 22.0409C37.8828 21.61 37.7021 21.5544 37.3545 21.5961C35.7975 21.7351 34.8383 22.7638 34.6298 24.5154C34.4352 26.1558 34.5603 27.8101 34.5464 29.4644C34.5464 30.0205 34.3379 30.368 33.9069 30.6738C31.6549 32.2169 29.4167 33.76 27.1785 35.317C26.8449 35.5533 26.4973 35.6784 26.0664 35.6784C24.6623 35.6506 23.2583 35.6645 21.8403 35.6784C21.4511 35.6784 21.1452 35.5533 20.8811 35.2614C20.0192 34.2883 19.1434 33.329 18.2537 32.3698C17.9756 32.064 17.8505 31.7582 17.8505 31.3411C17.8644 29.937 17.8783 28.533 17.8505 27.115C17.8366 26.2253 17.6837 25.3495 17.225 24.571C16.9886 24.154 16.6689 23.8203 16.2101 23.6396C15.9321 23.445 15.6124 23.3894 15.2787 23.3338C14.5141 23.2086 14.5141 23.2086 14.5141 23.9454C14.5141 33.5793 14.5141 43.2131 14.5141 52.847C14.5141 53.3335 14.4168 78.7179 13.9581 78.9682C13.1379 79.0099 12.832 78.7318 12.832 77.9255C12.832 67.8468 12.832 32.8008 12.832 22.736C12.832 21.9714 13.0545 21.7212 13.8329 21.6517C14.111 21.6239 14.4863 21.7073 14.6392 21.5544C14.8061 21.3875 14.5419 21.0539 14.528 20.7898C14.5141 20.5673 14.5002 20.3449 14.5002 20.1086C14.5002 17.37 14.5002 14.6174 14.5002 11.8788C14.5002 10.4469 15.098 9.39041 16.3352 8.68143C18.7263 7.30517 21.1174 5.9289 23.4946 4.53874C24.7179 3.82976 25.9135 3.81585 27.1368 4.52484C29.5418 5.915 31.9329 7.30517 34.3379 8.69533C35.5751 9.40432 36.1729 10.4747 36.1729 11.9066C36.159 14.4367 36.1729 16.9807 36.1729 19.5108C36.1729 19.7054 36.1729 19.8862 36.1729 20.1225C36.9375 19.9835 37.6604 19.9418 38.3972 19.9696C39.2313 19.9974 39.4954 20.2615 39.4954 21.1095C39.4954 23.6952 39.4954 26.2809 39.4954 28.8666C39.4954 29.0334 39.4954 29.2003 39.4954 29.4783C40.1488 28.9917 40.7187 28.5608 41.2887 28.1298C42.1367 27.4904 42.9986 26.8787 43.9995 26.4894C46.0431 25.7109 47.7808 26.1558 49.1848 27.824C49.4629 28.1576 49.7131 28.5052 49.9633 28.8666C50.2692 29.2976 50.1857 29.7563 49.7826 30.1039C49.6297 30.2429 49.449 30.3541 49.2821 30.4792C49.1292 30.5904 48.9902 30.7155 48.7956 30.8685C50.0328 31.5079 50.7418 32.5506 51.2701 33.7461C51.6176 34.5385 51.5203 34.8582 50.7557 35.2614C47.461 36.9991 44.1524 38.7229 40.8577 40.4606C40.816 40.5301 40.7048 40.6135 40.5797 40.683ZM34.5603 16.0076C34.5603 14.6174 34.5464 13.2273 34.5603 11.8371C34.5603 11.0864 34.2684 10.5443 33.615 10.1689C31.1961 8.77874 28.7772 7.37468 26.3583 5.97061C25.6911 5.58136 25.0655 5.59526 24.3982 5.98451C22.0349 7.36077 19.6577 8.73704 17.2806 10.0994C16.5577 10.5164 16.2101 11.0725 16.2101 11.9205C16.224 14.6591 16.224 17.4117 16.2101 20.1503C16.2101 20.9705 16.5438 21.5265 17.2389 21.9297C19.6299 23.2921 22.021 24.6822 24.4121 26.0585C25.0655 26.4338 25.6911 26.4477 26.3305 26.0863C28.7494 24.6961 31.1683 23.2921 33.5872 21.888C34.2545 21.5126 34.5742 20.9566 34.5603 20.1781C34.5464 18.7879 34.5603 17.3978 34.5603 16.0076ZM19.2685 24.9881C19.338 25.4468 19.4075 25.7805 19.4492 26.128C19.6438 27.6989 19.5187 29.2837 19.5465 30.8546C19.5465 31.1604 19.6299 31.3689 19.8385 31.5913C20.5057 32.3003 21.1591 33.0232 21.7986 33.7461C21.9654 33.9268 22.1183 34.0102 22.3686 34.0102C23.5363 33.9963 24.6901 33.9963 25.8579 34.0102C26.1081 34.0102 26.2888 33.9129 26.4695 33.7878C28.096 32.6618 29.7225 31.5496 31.3629 30.4236C31.8634 30.0761 32.5585 29.8258 32.7948 29.3532C33.045 28.8527 32.8782 28.1437 32.8921 27.5182C32.906 26.4199 32.8504 25.3217 33.0172 24.1401C32.7809 24.2652 32.628 24.3347 32.489 24.4181C30.7791 25.4051 29.0552 26.3921 27.3592 27.393C26.0525 28.1576 24.7874 28.1715 23.4807 27.393C22.1183 26.6006 20.7421 25.8361 19.2685 24.9881Z" fill="black"/>
<path d="M26.7639 78.9959C26.3607 78.7734 26.1939 78.4259 26.2217 77.9671C26.2495 77.4111 26.2356 51.8738 26.2217 51.3177C26.2217 50.9979 26.3329 50.7477 26.5693 50.5392C29.002 48.4957 31.4487 46.466 33.8676 44.4086C34.1874 44.1305 34.5349 44.0193 34.9519 44.0193C39.0529 44.0332 43.1539 44.0332 47.2549 44.0193C47.8527 44.0193 47.9222 43.9359 47.7693 43.352C47.6163 42.7404 47.2271 42.3094 46.671 42.0453C45.823 41.6282 44.9055 41.5448 43.988 41.517C43.3207 41.5031 43.0983 41.3224 42.9454 40.669C43.0844 40.0296 43.3207 39.8349 43.9324 39.8488C45.0028 39.8627 46.0455 39.9739 47.0464 40.3771C48.6312 41.0305 49.4653 42.226 49.4931 43.9637C49.4931 44.1722 49.4931 44.3808 49.4792 44.5893C49.4514 45.4512 49.2011 45.6875 48.3392 45.6875C44.0158 45.6875 39.6924 45.6875 35.3829 45.6875C35.0632 45.6875 34.8268 45.7709 34.5905 45.9795C32.4775 47.7728 30.3505 49.5661 28.2235 51.3316C27.9872 51.5262 27.876 51.7208 27.9038 52.0267C27.9316 52.3325 27.9177 77.6335 27.9038 77.9393C27.8899 78.7595 27.5841 79.0376 26.7639 78.9959Z" fill="black"/>
<path d="M14 78.9961C14.4588 78.7458 14.5561 53.3753 14.5561 52.8749C14.5422 43.241 14.5561 33.6072 14.5561 23.9734C14.5561 23.2366 14.5561 23.2366 15.3207 23.3617C15.6543 23.4173 15.974 23.4729 16.2521 23.6675C16.2521 23.7926 16.2382 23.9038 16.2382 24.029C16.2382 34.0242 16.2382 69.0008 16.2382 78.9961C15.4875 78.9961 14.7368 78.9961 14 78.9961Z" fill="#7FD7FE"/>
<path d="M13.5556 8.08358C13.3054 8.09748 13.1247 7.98627 12.9578 7.81945C12.4852 7.31899 11.9986 6.81853 11.526 6.30417C11.1367 5.87322 11.1367 5.40057 11.4982 5.05302C11.8457 4.71939 12.3462 4.74719 12.7354 5.16424C13.222 5.6647 13.6946 6.17906 14.1534 6.67952C14.4036 6.94365 14.4453 7.27729 14.2924 7.59703C14.1673 7.91676 13.9032 8.06968 13.5556 8.08358Z" fill="black"/>
<path d="M9.95487 9.55717C10.7195 9.8491 11.6092 10.0715 12.3877 10.5303C12.7352 10.7388 12.7769 11.142 12.6101 11.5034C12.4433 11.8787 12.1096 12.0873 11.7204 11.9621C10.928 11.7119 10.1495 11.42 9.3988 11.0863C9.02346 10.9195 8.94005 10.5442 9.03736 10.141C9.13467 9.80739 9.52392 9.54326 9.95487 9.55717Z" fill="black"/>
<path d="M39.6765 5.7201C39.6904 5.90082 39.5931 6.08155 39.4541 6.23446C38.9675 6.76273 38.4949 7.29099 37.9944 7.79145C37.6052 8.18069 37.1186 8.18069 36.785 7.83315C36.4513 7.48561 36.4374 7.02686 36.7989 6.62371C37.2576 6.10935 37.7442 5.60889 38.2168 5.10843C38.481 4.8304 38.8007 4.74699 39.1621 4.89991C39.5097 5.03892 39.6765 5.30305 39.6765 5.7201Z" fill="black"/>
<path d="M41.8708 10.3773C41.8847 10.7526 41.704 11.0168 41.3703 11.1558C40.7031 11.4338 40.0219 11.684 39.3268 11.9204C38.8541 12.0872 38.4371 11.8787 38.2564 11.4477C38.0895 11.0307 38.2703 10.5719 38.729 10.3912C39.3963 10.1132 40.0775 9.84902 40.7726 9.6266C41.3564 9.43197 41.8569 9.80732 41.8708 10.3773Z" fill="black"/>
<path d="M34.5576 16.0076C34.5576 17.3978 34.5437 18.7879 34.5576 20.1781C34.5715 20.9566 34.2379 21.5127 33.5845 21.888C31.1656 23.2921 28.7467 24.6822 26.3278 26.0863C25.6884 26.4616 25.0489 26.4477 24.4094 26.0585C22.0183 24.6683 19.6411 23.2921 17.2362 21.9297C16.5411 21.5266 16.1935 20.9705 16.2074 20.1503C16.2213 17.4117 16.2213 14.6592 16.2074 11.9205C16.2074 11.0864 16.555 10.5165 17.2779 10.0994C19.655 8.73705 22.0322 7.37469 24.3955 5.98453C25.0628 5.59528 25.7023 5.58138 26.3556 5.97062C28.7745 7.37469 31.1934 8.76485 33.6123 10.1689C34.2657 10.5443 34.5576 11.1003 34.5576 11.8371C34.5437 13.2273 34.5576 14.6174 34.5576 16.0076ZM18.7931 15.9937C18.7931 17.0224 18.8209 18.0373 18.7792 19.066C18.7653 19.6498 18.9739 19.9974 19.4743 20.2754C21.2676 21.2902 23.0609 22.319 24.8404 23.3755C25.2713 23.6257 25.6327 23.6118 26.0498 23.3755C27.8709 22.3051 29.7059 21.2485 31.5549 20.2059C31.9441 19.9835 32.1248 19.6776 32.1248 19.2328C32.1248 17.0919 32.1248 14.965 32.1248 12.8241C32.1248 12.4071 31.958 12.0873 31.5966 11.8788C29.7198 10.7945 27.8431 9.71017 25.9664 8.62584C25.6188 8.43121 25.2852 8.43121 24.9377 8.62584C23.0748 9.69626 21.212 10.7806 19.3492 11.851C18.96 12.0734 18.7931 12.3793 18.7931 12.8241C18.807 13.8668 18.7931 14.9372 18.7931 15.9937Z" fill="#FFD987"/>
<path d="M18.7975 15.9934C18.7975 14.9369 18.8114 13.8804 18.7975 12.81C18.7836 12.3651 18.9643 12.0593 19.3535 11.8369C21.2163 10.7664 23.0792 9.696 24.942 8.61167C25.2895 8.40315 25.6371 8.41705 25.9707 8.61167C27.8474 9.696 29.7242 10.7803 31.6009 11.8647C31.9623 12.0732 32.1291 12.3929 32.1291 12.81C32.1291 14.9508 32.1291 17.0778 32.1291 19.2186C32.1291 19.6635 31.9345 19.9693 31.5592 20.1917C29.7242 21.2483 27.8891 22.3048 26.0541 23.3613C25.6371 23.6116 25.2756 23.6255 24.8447 23.3613C23.0653 22.3187 21.2859 21.2761 19.4786 20.2613C18.9782 19.9832 18.7558 19.6357 18.7836 19.0518C18.8253 18.037 18.7975 17.0222 18.7975 15.9934ZM30.4748 16.0352C30.4748 15.2428 30.4609 14.4365 30.4887 13.6441C30.5026 13.2687 30.3914 13.0463 30.0578 12.8656C28.6398 12.0732 27.2219 11.253 25.8178 10.4328C25.5537 10.2799 25.3729 10.2938 25.1088 10.4467C23.6769 11.2947 22.2312 12.1149 20.7854 12.9351C20.5352 13.0741 20.4657 13.2409 20.4657 13.519C20.4796 15.1872 20.4796 16.8554 20.4657 18.5096C20.4657 18.8155 20.563 18.9823 20.8132 19.1213C22.259 19.9415 23.7047 20.7756 25.1366 21.6097C25.3868 21.7487 25.5676 21.7348 25.8039 21.5958C27.2497 20.7478 28.7093 19.9137 30.169 19.0796C30.3914 18.9545 30.4748 18.8016 30.4748 18.5375C30.4609 17.7034 30.4748 16.8693 30.4748 16.0352Z" fill="black"/>
<path d="M30.4753 16.0355C30.4753 16.8696 30.4614 17.7037 30.4753 18.5378C30.4753 18.802 30.3919 18.941 30.1695 19.08C28.7098 19.9141 27.2501 20.7482 25.8044 21.5962C25.568 21.7352 25.3873 21.7491 25.1371 21.6101C23.7052 20.7621 22.2594 19.9419 20.8137 19.1217C20.5495 18.9688 20.4522 18.802 20.4661 18.51C20.48 16.8418 20.48 15.1736 20.4661 13.5193C20.4661 13.2413 20.5356 13.0884 20.7859 12.9355C22.2316 12.1153 23.6774 11.2951 25.1093 10.4471C25.3734 10.2942 25.5541 10.2803 25.8183 10.4332C27.2223 11.2673 28.6264 12.0736 30.0583 12.866C30.3919 13.0606 30.5031 13.2691 30.4892 13.6444C30.4475 14.4368 30.4753 15.2431 30.4753 16.0355Z" fill="#CFB06E"/>
</g>
<defs>
<clipPath id="clip0_1040_2300">
<rect width="60" height="60" fill="white"/>
</clipPath>
</defs>
</svg>
