<svg width="482" height="491" viewBox="0 0 482 491" fill="none" xmlns="http://www.w3.org/2000/svg">
<circle cx="241" cy="246" r="234" fill="url(#paint0_radial_1014_33270)"/>
<circle cx="245.332" cy="256.304" r="224.601" stroke="#324463" stroke-width="1.07981" stroke-dasharray="5.19 5.19"/>
<circle cx="245.332" cy="256.305" r="133.773" stroke="#324463" stroke-width="1.07981" stroke-dasharray="5.19 5.19"/>
<rect x="146" y="89" width="82.0773" height="82.0773" rx="28.9119" fill="white"/>
<g clip-path="url(#clip0_1014_33270)">
<path d="M196.218 104.986C195.287 103.373 193.168 102.917 191.655 104.004L189.069 105.854L206.719 136.426C207.421 137.642 207.088 139.193 205.948 140.013L183.592 156.084C179.769 159.127 180.495 160.923 180.646 161.205L180.669 161.246L180.743 161.373C181.356 162.436 182.722 162.791 183.775 162.16L214.611 143.719C216.415 142.639 217.018 140.314 215.968 138.494L196.217 104.984L196.218 104.986Z" fill="#4F4F4F"/>
<path d="M164.65 123.33L189.067 105.854L186.404 101.243C185.783 100.166 184.348 99.8942 183.375 100.668L160.993 118.49C159.019 120.062 158.494 122.841 159.754 125.024L163.334 131.224C160.864 126.946 162.061 125.193 164.65 123.33Z" fill="#FFD987"/>
<path d="M179.417 159.083L180.644 161.208C180.492 160.924 179.766 159.128 183.59 156.085L205.945 140.014C207.085 139.194 207.42 137.644 206.717 136.427L189.066 105.855L164.65 123.332C162.06 125.194 160.864 126.947 163.334 131.225L179.417 159.083Z" fill="#CFB06E"/>
</g>
<rect y="136" width="80.8514" height="80.8514" rx="24.0231" fill="#87FF4F"/>
<g clip-path="url(#clip1_1014_33270)">
<path d="M40.0695 193.933C34.6287 193.933 29.1878 193.919 23.7469 193.933C21.2347 193.933 19.1387 193.059 17.5452 191.097C16.5116 189.823 15.9374 188.362 15.9374 186.715C15.9374 179.998 15.8943 173.281 15.9517 166.578C15.9804 162.554 19.3254 159.346 23.3593 159.346C34.5425 159.346 45.7257 159.346 56.9089 159.346C60.9285 159.346 64.2734 162.554 64.3021 166.578C64.3596 173.267 64.3596 179.969 64.3021 186.657C64.2734 190.782 60.9429 193.89 56.6648 193.919C53.7363 193.933 50.7933 193.919 47.8647 193.919C45.2663 193.933 42.6679 193.933 40.0695 193.933ZM61.7181 168.469C61.7181 167.839 61.7468 167.223 61.7324 166.593C61.6463 164 59.536 161.924 56.952 161.924C45.7401 161.909 34.5282 161.909 23.3019 161.924C21.0624 161.924 19.1244 163.513 18.6363 165.69C18.4353 166.607 18.5071 167.538 18.5358 168.454C18.5358 169.314 18.5358 170.173 18.5358 171.032C18.5214 171.133 18.5071 171.247 18.5071 171.347C18.5071 176.346 18.5071 181.344 18.5071 186.342C18.5071 186.686 18.5214 187.03 18.5932 187.359C19.0813 189.823 21.0624 191.341 23.7469 191.341C34.6574 191.341 45.5821 191.341 56.4926 191.341C56.952 191.341 57.4257 191.312 57.8851 191.212C60.2394 190.696 61.7324 188.777 61.7324 186.285C61.7468 181.344 61.7324 176.389 61.7324 171.448C61.7324 171.304 61.7181 171.161 61.7037 171.018C61.7181 170.187 61.7181 169.328 61.7181 168.469Z" fill="#010222"/>
<path d="M17.7891 166.651C32.6762 166.651 47.5485 166.651 62.4357 166.651C62.4357 167.51 62.4357 168.369 62.4357 169.229C47.5634 169.229 32.6762 169.229 17.8039 169.229C17.7891 168.369 17.7891 167.51 17.7891 166.651Z" fill="#010222"/>
<path d="M23.7705 184.832C23.2688 184.832 22.767 184.847 22.2652 184.832C21.734 184.816 21.3995 184.32 21.3798 183.567C21.3601 182.768 21.6749 182.166 22.216 182.151C23.2786 182.106 24.351 182.106 25.4136 182.151C25.935 182.166 26.2695 182.799 26.2597 183.567C26.24 184.304 25.8858 184.816 25.3644 184.832C25.3447 184.832 25.3152 184.832 25.2955 184.832C24.7741 184.832 24.2723 184.832 23.7705 184.832Z" fill="#010222"/>
<g clip-path="url(#clip2_1014_33270)">
<path d="M44.0695 173.192C44.0937 173.192 44.1179 173.192 44.1421 173.2H47.7966V170.948H38.8984V173.289C38.9468 173.233 39.0194 173.2 39.1001 173.2H44.0695V173.192Z" fill="#010222"/>
<path d="M51.0689 174.176L55.0219 179.071H58.6763V173.916H56.0142V175.761L54.5136 173.916H53.8118C53.6585 173.916 53.5375 173.794 53.5375 173.639V173.468C53.5375 173.314 53.6585 173.192 53.8118 173.192H53.9328L52.1258 170.948H48.3906V179.071H51.0689V174.176ZM52.6582 173.477C52.6582 173.322 52.7792 173.2 52.9325 173.2C53.0858 173.2 53.2068 173.322 53.2068 173.477V173.647C53.2068 173.802 53.0858 173.924 52.9325 173.924C52.7792 173.924 52.6582 173.802 52.6582 173.647V173.477ZM51.1093 173.477C51.1093 173.322 51.2303 173.2 51.3836 173.2H51.8837C52.037 173.2 52.158 173.322 52.158 173.477V173.647C52.158 173.802 52.037 173.924 51.8837 173.924H51.3836C51.2303 173.924 51.1093 173.802 51.1093 173.647V173.477Z" fill="#010222"/>
<path d="M58.67 170.948H56.0078V173.192H58.67V170.948Z" fill="#010222"/>
<path d="M48.9097 183.519C48.7726 183.519 48.6596 183.397 48.6596 183.242V183.071C48.6596 182.974 48.708 182.892 48.7726 182.836C48.6193 182.388 48.4095 182.006 48.1433 181.705C47.869 181.396 47.5141 181.144 47.0784 180.949C46.6428 180.754 46.1749 180.616 45.6667 180.534C45.1584 180.453 44.5695 180.412 43.908 180.412C42.2623 180.412 41.0361 180.738 40.2294 181.388C39.4226 182.039 39.0273 183.047 39.0273 184.405C39.0273 185.869 39.4226 186.95 40.2052 187.649C40.9877 188.349 42.2462 188.698 43.9806 188.698C44.6744 188.698 45.2875 188.658 45.8119 188.568C46.3363 188.479 46.8042 188.341 47.2236 188.145C47.6351 187.95 47.9739 187.69 48.232 187.373C48.4902 187.056 48.6838 186.657 48.821 186.202C48.9581 185.738 49.0226 185.194 49.0226 184.559C49.0226 184.177 48.9904 183.836 48.942 183.51H48.9097V183.519ZM45.7312 186.072C45.3278 186.405 44.7551 186.568 44.0129 186.568C43.2707 186.568 42.6899 186.381 42.3107 186.015C41.9235 185.649 41.7379 185.161 41.7379 184.551C41.7379 184.234 41.7863 183.95 41.8751 183.706C41.9638 183.462 42.101 183.242 42.2865 183.071C42.472 182.892 42.706 182.762 42.9964 182.673C43.2788 182.583 43.6176 182.543 43.9887 182.543C44.7067 182.543 45.2794 182.714 45.707 183.055C46.1346 183.397 46.3443 183.901 46.3443 184.551C46.3363 185.218 46.1346 185.747 45.7312 186.072ZM47.4011 183.242C47.4011 183.397 47.2882 183.519 47.151 183.519H46.6993C46.5621 183.519 46.4492 183.397 46.4492 183.242V183.071C46.4492 182.917 46.5621 182.795 46.6993 182.795H47.151C47.2882 182.795 47.4011 182.917 47.4011 183.071V183.242ZM48.3611 183.242C48.3611 183.397 48.2482 183.519 48.111 183.519C47.9739 183.519 47.861 183.397 47.861 183.242V183.071C47.861 182.917 47.9739 182.795 48.111 182.795C48.2482 182.795 48.3611 182.917 48.3611 183.071V183.242Z" fill="#010222"/>
<path d="M47.7963 176.818H41.5765V176.087H47.4091V173.924H41.5765H39.1079C39.0273 173.924 38.9547 173.891 38.9062 173.834V179.079H47.8044V176.818H47.7963Z" fill="#010222"/>
<path d="M56.4146 180.543V185.357L55.0593 183.511H50.574C50.4368 183.511 50.3239 183.389 50.3239 183.234V183.064C50.3239 182.909 50.4368 182.787 50.574 182.787H54.5269L52.8731 180.543H49.4688V182.787H49.614C49.7511 182.787 49.864 182.909 49.864 183.064V183.234C49.864 183.389 49.7511 183.511 49.614 183.511H49.4688V188.674H51.9051V183.779L55.5111 188.674H58.8429V180.543H56.4146Z" fill="#010222"/>
<path d="M38.167 179.071V176.827H32.9556L37.6023 173.916H37.2715C37.1183 173.916 36.9973 173.794 36.9973 173.639V173.468C36.9973 173.314 37.1183 173.192 37.2715 173.192H38.046C38.0863 173.192 38.1347 173.2 38.167 173.224V170.948H29.043V173.208H34.3431L29.043 176.477V179.071H29.1962H38.167ZM36.1179 173.477C36.1179 173.322 36.2389 173.2 36.3922 173.2C36.5455 173.2 36.6665 173.322 36.6665 173.477V173.647C36.6665 173.802 36.5455 173.924 36.3922 173.924C36.2389 173.924 36.1179 173.802 36.1179 173.647V173.477ZM34.569 173.477C34.569 173.322 34.69 173.2 34.8433 173.2H35.3435C35.4967 173.2 35.6178 173.322 35.6178 173.477V173.647C35.6178 173.802 35.4967 173.924 35.3435 173.924H34.8433C34.69 173.924 34.569 173.802 34.569 173.647V173.477Z" fill="#010222"/>
<path d="M31.4824 183.576C31.5873 183.414 31.7244 183.275 31.8938 183.162C32.0633 183.056 32.2972 182.966 32.5957 182.893C32.8942 182.82 33.2411 182.787 33.6364 182.787C34.0801 182.787 34.4754 182.836 34.8142 182.934C35.153 183.031 35.4031 183.137 35.5725 183.259C35.7419 183.381 35.879 183.511 35.9839 183.666C36.0888 183.82 36.1533 183.926 36.1695 183.983C36.1856 184.048 36.2017 184.097 36.2098 184.137H38.7106C38.7106 183.568 38.6219 183.064 38.4525 182.633C38.275 182.202 38.0007 181.82 37.6135 181.495C37.2263 181.169 36.71 180.917 36.0404 180.738C35.3789 180.568 34.5883 180.478 33.6606 180.478C32.8377 180.478 32.1278 180.551 31.5227 180.698C30.9258 180.844 30.4095 181.08 29.9819 181.413C29.5543 181.739 29.2397 182.178 29.0219 182.722C28.8122 183.267 28.6992 183.918 28.6992 184.682C28.6992 185.39 28.7799 185.991 28.9493 186.479C29.1187 186.967 29.393 187.382 29.7802 187.723C30.1675 188.065 30.6838 188.317 31.3211 188.48C31.9664 188.634 32.757 188.715 33.709 188.715C34.4834 188.715 35.1611 188.658 35.75 188.536C36.3389 188.414 36.8148 188.26 37.1779 188.057C37.5409 187.853 37.8394 187.601 38.0733 187.3C38.3073 187 38.4606 186.691 38.5574 186.365C38.6542 186.04 38.6945 185.69 38.6945 185.292H36.1937L36.1695 185.406C36.1533 185.487 36.1049 185.577 36.0081 185.69C35.9113 185.804 35.7903 185.91 35.629 186.024C35.4676 186.13 35.2095 186.227 34.8626 186.3C34.5157 186.382 34.1043 186.414 33.6283 186.414C33.1523 186.414 32.7732 186.365 32.4585 186.276C32.1359 186.186 31.8938 186.048 31.7164 185.877C31.5389 185.707 31.4179 185.512 31.3372 185.308C31.2565 185.097 31.2243 184.861 31.2243 184.593C31.2243 184.398 31.2404 184.227 31.2727 184.064C31.313 183.901 31.3775 183.739 31.4824 183.576Z" fill="#010222"/>
</g>
</g>
<rect x="109" y="422" width="69" height="69" rx="20" fill="#1D2140"/>
<g clip-path="url(#clip3_1014_33270)">
<path d="M130.986 446.33L131.979 444.591L132.07 444.431L132.442 443.779L132.657 443.39L133.616 441.72L134.632 439.936H152.941L154.003 441.8L156.892 441.812H158.495L156.294 437.968L155.176 436.001H152.941H134.632H132.386L131.268 437.968L122.114 454.028L120.996 455.995L122.114 457.963L125.523 463.956L127.396 462.584L128.695 461.646L125.477 455.995L130.986 446.33Z" fill="#FFD987"/>
<path d="M165.445 454.028L162.036 448.046L160.173 449.407L158.875 450.356L162.092 455.995L156.572 465.672L155.59 467.399L155.5 467.571L155.127 468.223L154.901 468.612L153.953 470.27L152.937 472.066H134.628L133.567 470.202L130.677 470.19H129.074L131.264 474.034L132.382 476.001H134.628H152.937H155.172L156.29 474.034L165.445 457.963L166.573 455.995L165.445 454.028Z" fill="#FFD987"/>
<path d="M159.062 444.648H156.285L154.772 444.637L152.548 444.625L136.102 444.568L153.734 464.059L152.706 451.923L155.528 449.864L157.097 448.72L158.159 447.942L160.123 446.512L162.651 444.659L159.062 444.648Z" fill="white"/>
<path d="M134.871 460.079L132.049 462.138L130.468 463.282L129.407 464.059L127.454 465.489L124.926 467.331L128.515 467.342L131.292 467.354L132.794 467.365H135.029L151.475 467.422L133.843 447.931L134.871 460.079Z" fill="white"/>
</g>
<rect x="245" y="336" width="80" height="80" rx="26.5972" fill="#0D8BD2"/>
<path d="M294.192 394.686H290.263C289.501 394.686 288.891 395.296 288.891 396.059V399.988C288.891 400.75 289.501 401.36 290.263 401.36H294.192C294.954 401.36 295.564 400.75 295.564 399.988V396.059C295.564 395.308 294.943 394.686 294.192 394.686Z" fill="white"/>
<path d="M314.672 400.222C314.614 399.847 314.332 399.601 313.933 399.554C313.734 399.53 313.523 399.53 313.324 399.53C313.159 399.53 312.995 399.53 312.831 399.53V360.708C312.831 356.509 310.016 352.838 305.97 351.747L301.665 350.586C300.727 350.328 299.8 351.044 299.8 352.017V355.653C292.962 353.812 297.701 355.231 290.933 353.436C287.368 352.486 283.966 354.386 282.876 357.917C282.594 358.832 282.36 359.77 282.102 360.755C291.825 363.359 289.972 362.69 299.8 365.353V399.519C297.994 399.46 297.806 399.906 297.924 401.372H314.696C314.684 400.973 314.731 400.586 314.672 400.222Z" fill="#1D2140"/>
<path d="M290.801 365.776C290.872 365.787 290.93 365.811 291.001 365.834C292.162 366.245 292.725 365.858 292.842 364.392C289.875 363.594 286.907 362.796 283.893 361.999C283.834 362.198 283.776 362.374 283.729 362.55C283.471 363.488 283.694 363.887 284.62 364.134C286.673 364.673 288.737 365.224 290.801 365.776Z" fill="white"/>
<path d="M284.156 369.024C281.083 366.796 277.658 365.717 273.975 365.799C269.976 365.893 266.445 367.253 263.501 369.857C262.692 370.561 261.941 371.347 261.203 372.109C260.909 372.414 260.616 372.719 260.311 373.024L260.182 372.918L260.053 373.082C259.83 373.376 259.596 373.669 259.361 373.962C258.857 374.584 258.352 375.229 257.918 375.921C255.584 379.592 254.763 383.932 255.62 388.13C256.476 392.318 258.915 396 262.493 398.475C265.214 400.364 268.474 401.361 271.817 401.361C272.286 401.361 272.744 401.337 273.213 401.302C277.036 400.985 280.614 399.355 283.3 396.728C283.581 396.446 283.874 396.153 284.144 395.871C284.543 395.461 284.953 395.039 285.376 394.64C287.815 392.376 289.481 389.632 290.325 386.465C292.037 380.073 289.504 372.895 284.156 369.024ZM258.27 378.466C258.153 379.041 258.036 379.627 257.907 380.214C257.895 380.26 257.86 380.331 257.754 380.448C257.649 380.565 257.543 380.671 257.438 380.765C257.637 379.991 257.907 379.228 258.27 378.466ZM256.922 386.23C256.91 386.101 256.898 385.996 256.898 385.879C256.886 385.175 256.886 384.412 256.91 383.662C256.91 383.568 256.98 383.439 257.062 383.345C257.285 383.111 257.508 382.876 257.754 382.641L257.778 382.817C257.86 383.603 257.942 384.342 258.012 385.093C258.012 385.104 258.001 385.151 257.989 385.163C257.672 385.492 257.344 385.82 256.992 386.172L256.922 386.23ZM257.954 390.148C257.918 390.183 257.883 390.23 257.848 390.265L257.778 390.031C257.59 389.385 257.414 388.776 257.238 388.177C257.238 388.154 257.262 388.119 257.273 388.107C257.602 387.767 257.942 387.427 258.294 387.075L258.399 386.969C258.423 387.04 258.446 387.11 258.458 387.18C258.575 387.568 258.681 387.931 258.869 388.271C259.173 388.834 259.103 389.174 258.599 389.55C258.376 389.69 258.177 389.902 257.954 390.148ZM260.909 392.986C260.581 393.315 260.253 393.643 259.924 393.96L258.54 391.802L259.865 390.465C259.948 390.594 260.03 390.711 260.112 390.84C260.393 391.262 260.675 391.696 260.968 392.13L260.98 392.153C261.12 392.365 261.238 392.529 261.226 392.587C261.238 392.658 261.085 392.799 260.909 392.986ZM262.364 396.446L261.015 395.097L262.352 393.76L263.701 395.109L262.364 396.446ZM266.574 397.22C266.199 397.596 265.824 397.983 265.437 398.346C265.413 398.346 265.366 398.346 265.355 398.335C264.874 398.076 264.405 397.818 263.9 397.549L263.654 397.42L265.003 396.059L266.715 397.068L266.574 397.22ZM270.257 398.487C269.894 398.851 269.553 399.202 269.202 399.543L269.178 399.554C268.521 399.402 267.876 399.238 267.172 399.062L266.985 399.015L267.126 398.874C267.524 398.464 267.876 398.123 268.24 397.772C268.252 397.76 268.298 397.748 268.298 397.748C268.897 397.936 269.495 398.123 270.116 398.335L270.339 398.405L270.257 398.487ZM273.189 399.695C273.166 399.719 273.131 399.742 273.131 399.742C272.521 399.765 271.899 399.777 271.289 399.789H271.16L271.219 399.73C271.536 399.414 271.852 399.097 272.169 398.78C272.181 398.768 272.216 398.757 272.239 398.757C272.779 398.792 273.318 398.827 273.893 398.874L273.975 398.886C273.717 399.156 273.447 399.425 273.189 399.695ZM275.899 399.179C276.028 399.05 276.157 398.921 276.286 398.804C276.297 398.792 276.333 398.768 276.45 398.733C277.048 398.593 277.658 398.464 278.256 398.335C277.494 398.71 276.708 398.991 275.899 399.179ZM284.789 393.033C281.974 395.801 278.28 397.326 274.351 397.326C274.28 397.326 274.221 397.326 274.151 397.326C270.152 397.279 266.375 395.66 263.525 392.763C260.78 389.984 259.291 386.23 259.326 382.219C259.361 378.208 260.921 374.478 263.713 371.722C266.574 368.907 270.328 367.359 274.315 367.359C274.351 367.359 274.374 367.359 274.409 367.359C278.42 367.382 282.185 368.977 285.012 371.851C290.783 377.727 290.689 387.227 284.789 393.033Z" fill="#FFD987"/>
<path d="M274.375 369.306C274.339 369.306 274.304 369.306 274.269 369.306C270.821 369.306 267.584 370.632 265.156 373.048C262.658 375.522 261.274 378.83 261.274 382.337C261.262 385.809 262.611 389.081 265.05 391.532C267.513 394.007 270.797 395.379 274.281 395.379C274.292 395.379 274.292 395.379 274.304 395.379C277.788 395.379 281.06 394.019 283.535 391.556C285.986 389.116 287.335 385.855 287.347 382.384C287.358 378.9 286.021 375.64 283.593 373.188C281.13 370.714 277.858 369.33 274.375 369.306ZM282.42 390.453C280.18 392.693 277.236 393.819 274.292 393.819C271.372 393.819 268.452 392.717 266.223 390.488C261.719 386.02 261.719 378.713 266.2 374.209C268.346 372.062 271.208 370.866 274.281 370.866H274.292C277.365 370.866 280.251 372.051 282.397 374.209C286.889 378.677 286.901 385.973 282.42 390.453Z" fill="white"/>
<path d="M266.875 382.348L274.675 390.148L282.474 382.348L274.675 374.549L266.875 382.348ZM274.675 387.591L269.432 382.348L274.675 377.106L279.917 382.348L274.675 387.591Z" fill="white"/>
<path d="M278.268 382.348L274.679 378.759L271.078 382.348H278.268Z" fill="white"/>
<g clip-path="url(#clip4_1014_33270)">
<rect x="248" width="77.2071" height="77.2072" rx="24.599" fill="#564ED1"/>
<path d="M286.456 102.165C282.166 102.165 277.892 102.165 273.602 102.165C273.602 89.9717 273.602 47.3042 273.602 35.1111C273.602 34.9585 273.619 34.8228 273.619 34.6702C274.178 34.8906 274.551 35.3146 274.856 35.8064C275.416 36.773 275.603 37.8245 275.62 38.9098C275.654 40.6226 275.637 42.3354 275.62 44.0652C275.62 44.5739 275.772 44.947 276.111 45.3201C277.197 46.4733 278.265 47.6604 279.317 48.8475C279.639 49.2036 280.012 49.3562 280.487 49.3562C282.199 49.3393 283.912 49.3393 285.642 49.3562C286.168 49.3562 286.575 49.2036 286.999 48.9153C289.729 47.0159 292.459 45.1166 295.207 43.2512C295.749 42.8781 295.987 42.4541 295.987 41.7758C296.004 39.7577 295.851 37.7566 296.088 35.7386C296.343 33.6188 297.496 32.3638 299.412 32.1773C299.836 32.1434 300.057 32.1942 300.057 32.72C300.04 36.8578 300.04 40.9787 300.057 45.1166C300.057 45.4388 299.972 45.6762 299.718 45.8797C297.733 47.5756 295.766 49.2714 293.799 50.9673C292.985 51.6795 292.154 52.3748 291.357 53.104C290.814 53.5958 290.747 54.1385 291.137 54.6133C291.51 55.0543 292.12 55.0712 292.663 54.6473C292.849 54.5116 293.019 54.359 293.206 54.2063C295.885 51.9 298.53 49.5597 301.227 47.2703C301.837 46.7616 302.21 46.2359 302.075 45.4388C301.939 44.6587 302.261 44.15 302.923 43.726C304.551 42.6237 305.975 41.2501 307.739 40.3174C309.486 39.4016 311.215 39.6729 312.284 40.9787C312.606 41.3688 312.521 41.5553 312.165 41.8267C308.197 44.8283 304.245 47.8469 300.277 50.8486C298.937 51.8661 297.615 52.8666 296.292 53.8841C295.783 54.2742 295.681 54.9525 296.038 55.3934C296.377 55.8174 297.004 55.8683 297.513 55.5121C297.683 55.3934 297.852 55.2578 298.022 55.139C302.278 51.9 306.552 48.6609 310.808 45.4219C311.131 45.1844 311.436 45.0827 311.86 45.1505C312.945 45.3201 313.607 46.0324 314.149 46.8972C314.353 47.2194 314.302 47.406 313.946 47.5756C313.064 47.9995 312.216 48.4744 311.351 48.9153C307.959 50.6959 304.568 52.4766 301.176 54.2572C300.549 54.5964 300.362 55.1221 300.667 55.6817C300.939 56.2074 301.464 56.3431 302.092 56.0548C302.516 55.8513 302.923 55.6478 303.347 55.4613C304.313 55.4613 305.263 55.4613 306.23 55.4613C306.416 56.2583 306.671 56.4618 307.501 56.4957C308.621 56.5296 309.74 56.6144 310.774 57.1401C311.453 57.4793 311.928 57.9881 312.114 58.7342C312.284 59.4465 312.199 59.5482 311.487 59.5482C306.484 59.5482 301.481 59.5482 296.478 59.5482C295.953 59.5482 295.546 59.6839 295.156 60.0231C292.188 62.516 289.22 65.0089 286.253 67.5018C285.964 67.7561 285.812 68.0614 285.829 68.4514C285.846 69.1298 285.863 100.282 285.829 100.961C285.761 101.47 285.964 101.877 286.456 102.165Z" fill="#65C6E9"/>
<path d="M303.314 55.4269C302.89 55.6304 302.483 55.8339 302.059 56.0205C301.432 56.3088 300.923 56.1731 300.634 55.6474C300.346 55.0878 300.516 54.5621 301.143 54.2229C304.535 52.4423 307.927 50.6616 311.318 48.881C312.183 48.4231 313.031 47.9652 313.913 47.5413C314.269 47.3717 314.32 47.1851 314.116 46.8629C313.574 45.998 312.912 45.2858 311.827 45.1162C311.403 45.0484 311.098 45.1501 310.776 45.3875C306.519 48.6266 302.246 51.8657 297.989 55.1047C297.819 55.2404 297.65 55.3591 297.48 55.4778C296.954 55.8339 296.344 55.7831 296.005 55.3591C295.649 54.9182 295.75 54.2568 296.259 53.8498C297.582 52.8323 298.922 51.8148 300.244 50.8142C304.213 47.7956 308.164 44.794 312.132 41.7923C312.505 41.521 312.573 41.3345 312.251 40.9444C311.183 39.6386 309.453 39.3503 307.706 40.283C305.959 41.2157 304.518 42.5894 302.89 43.6917C302.246 44.1326 301.906 44.6244 302.042 45.4045C302.178 46.2015 301.805 46.7272 301.194 47.236C298.498 49.5254 295.835 51.8487 293.173 54.172C293.003 54.3246 292.817 54.4773 292.63 54.6129C292.087 55.0369 291.477 55.0369 291.104 54.579C290.714 54.1211 290.782 53.5615 291.324 53.0697C292.121 52.3405 292.952 51.6452 293.766 50.9329C295.733 49.2371 297.718 47.5413 299.685 45.8454C299.939 45.6249 300.024 45.4045 300.024 45.0823C300.007 40.9444 300.007 36.8235 300.024 32.6856C300.024 32.1599 299.803 32.0921 299.38 32.143C297.48 32.3126 296.31 33.5675 296.056 35.7042C295.818 37.7053 295.971 39.7234 295.954 41.7415C295.954 42.4198 295.7 42.8438 295.174 43.2168C292.427 45.0992 289.696 46.9816 286.966 48.881C286.559 49.1693 286.135 49.3219 285.609 49.3219C283.896 49.288 282.184 49.3049 280.454 49.3219C279.979 49.3219 279.606 49.1693 279.284 48.8131C278.232 47.626 277.164 46.4559 276.079 45.2858C275.739 44.9127 275.587 44.5396 275.587 44.0309C275.604 42.318 275.621 40.6052 275.587 38.8755C275.57 37.7901 275.383 36.7218 274.824 35.7721C274.535 35.2633 274.145 34.8563 273.586 34.6359C273.247 34.3984 272.857 34.3306 272.45 34.2628C271.517 34.1102 271.517 34.1101 271.517 35.0089C271.517 46.7612 271.517 58.5134 271.517 70.2656C271.517 70.8591 271.398 101.825 270.838 102.131C269.838 102.181 269.465 101.842 269.465 100.859C269.465 88.5638 269.465 45.8115 269.465 33.5336C269.465 32.6008 269.736 32.2956 270.686 32.2108C271.025 32.1769 271.483 32.2786 271.669 32.0921C271.873 31.8886 271.551 31.4816 271.534 31.1594C271.517 30.888 271.5 30.6167 271.5 30.3284C271.5 26.9876 271.5 23.6298 271.5 20.289C271.5 18.5423 272.229 17.2534 273.738 16.3886C276.655 14.7097 279.572 13.0308 282.472 11.3349C283.964 10.4701 285.423 10.4531 286.915 11.318C289.849 13.0138 292.766 14.7097 295.7 16.4055C297.209 17.2704 297.938 18.5762 297.938 20.3229C297.921 23.4094 297.938 26.5128 297.938 29.5992C297.938 29.8366 297.938 30.0571 297.938 30.3454C298.871 30.1758 299.753 30.1249 300.651 30.1588C301.669 30.1927 301.991 30.515 301.991 31.5494C301.991 34.7037 301.991 37.858 301.991 41.0122C301.991 41.2157 301.991 41.4192 301.991 41.7584C302.788 41.1649 303.483 40.6392 304.179 40.1134C305.213 39.3334 306.265 38.5872 307.486 38.1123C309.979 37.1627 312.098 37.7053 313.811 39.7404C314.15 40.1474 314.456 40.5713 314.761 41.0122C315.134 41.538 315.032 42.0976 314.54 42.5215C314.354 42.6911 314.133 42.8268 313.93 42.9794C313.743 43.1151 313.574 43.2677 313.336 43.4543C314.846 44.2344 315.711 45.5062 316.355 46.9647C316.779 47.9313 316.66 48.3213 315.727 48.8131C311.708 50.9329 307.672 53.0358 303.653 55.1556C303.602 55.2404 303.467 55.3421 303.314 55.4269ZM295.971 25.3257C295.971 23.6298 295.954 21.934 295.971 20.2381C295.971 19.3224 295.615 18.661 294.818 18.2031C291.867 16.5073 288.916 14.7945 285.965 13.0817C285.151 12.6068 284.388 12.6238 283.574 13.0986C280.691 14.7775 277.791 16.4564 274.892 18.1183C274.01 18.6271 273.586 19.3054 273.586 20.3399C273.603 23.6807 273.603 27.0385 273.586 30.3793C273.586 31.3798 273.993 32.0582 274.841 32.55C277.758 34.2119 280.674 35.9077 283.591 37.5866C284.388 38.0445 285.151 38.0615 285.931 37.6206C288.882 35.9247 291.833 34.2119 294.784 32.4991C295.598 32.0412 295.988 31.3629 295.971 30.4132C295.954 28.7174 295.971 27.0215 295.971 25.3257ZM277.317 36.2808C277.401 36.8405 277.486 37.2475 277.537 37.6714C277.774 39.5877 277.622 41.521 277.656 43.4373C277.656 43.8104 277.758 44.0648 278.012 44.3361C278.826 45.201 279.623 46.0828 280.403 46.9647C280.607 47.1851 280.793 47.2869 281.098 47.2869C282.523 47.2699 283.93 47.2699 285.355 47.2869C285.66 47.2869 285.881 47.1682 286.101 47.0155C288.085 45.6419 290.069 44.2852 292.07 42.9116C292.681 42.4876 293.529 42.1824 293.817 41.6058C294.122 40.9953 293.919 40.1304 293.936 39.3673C293.953 38.0276 293.885 36.6878 294.088 35.2464C293.8 35.399 293.614 35.4838 293.444 35.5855C291.358 36.7896 289.255 37.9936 287.186 39.2146C285.592 40.1474 284.049 40.1643 282.455 39.2146C280.793 38.248 279.114 37.3153 277.317 36.2808Z" fill="black"/>
<path d="M286.454 102.164C285.962 101.893 285.759 101.469 285.793 100.909C285.827 100.231 285.81 69.0784 285.793 68.4C285.793 68.01 285.928 67.7047 286.217 67.4503C289.184 64.9574 292.169 62.4815 295.12 59.9717C295.51 59.6325 295.934 59.4968 296.443 59.4968C301.445 59.5138 306.448 59.5138 311.451 59.4968C312.18 59.4968 312.265 59.3951 312.078 58.6828C311.892 57.9366 311.417 57.4109 310.739 57.0887C309.704 56.58 308.585 56.4782 307.466 56.4443C306.652 56.4273 306.38 56.2069 306.194 55.4098C306.363 54.6297 306.652 54.3923 307.398 54.4093C308.704 54.4262 309.975 54.5619 311.196 55.0537C313.13 55.8508 314.147 57.3092 314.181 59.429C314.181 59.6834 314.181 59.9377 314.164 60.1921C314.13 61.2435 313.825 61.5318 312.774 61.5318C307.499 61.5318 302.225 61.5318 296.968 61.5318C296.578 61.5318 296.29 61.6336 296.002 61.888C293.424 64.0756 290.829 66.2632 288.235 68.417C287.946 68.6544 287.811 68.8918 287.845 69.2649C287.879 69.638 287.862 100.502 287.845 100.875C287.828 101.876 287.455 102.215 286.454 102.164Z" fill="black"/>
<path d="M270.887 102.165C271.446 101.859 271.565 70.9101 271.565 70.2996C271.548 58.5474 271.565 46.7952 271.565 35.043C271.565 34.1442 271.565 34.1442 272.498 34.2968C272.905 34.3646 273.295 34.4325 273.634 34.6699C273.634 34.8225 273.617 34.9582 273.617 35.1108C273.617 47.3039 273.617 89.9714 273.617 102.165C272.701 102.165 271.786 102.165 270.887 102.165Z" fill="#7FD7FE"/>
<path d="M270.348 15.6588C270.043 15.6758 269.822 15.5401 269.619 15.3366C269.042 14.7261 268.449 14.1156 267.872 13.4881C267.397 12.9624 267.397 12.3858 267.838 11.9619C268.262 11.5549 268.873 11.5888 269.348 12.0975C269.941 12.708 270.518 13.3355 271.077 13.946C271.383 14.2682 271.433 14.6752 271.247 15.0653C271.094 15.4553 270.772 15.6419 270.348 15.6588Z" fill="black"/>
<path d="M265.954 17.4571C266.887 17.8132 267.972 18.0845 268.922 18.6442C269.346 18.8985 269.396 19.3903 269.193 19.8312C268.989 20.2891 268.582 20.5435 268.108 20.3909C267.141 20.0856 266.191 19.7295 265.276 19.3225C264.818 19.119 264.716 18.6611 264.835 18.1693C264.953 17.7623 265.428 17.4401 265.954 17.4571Z" fill="black"/>
<path d="M302.208 12.7762C302.225 12.9967 302.106 13.2171 301.937 13.4037C301.343 14.0481 300.766 14.6925 300.156 15.303C299.681 15.7779 299.088 15.7779 298.681 15.3539C298.274 14.93 298.257 14.3703 298.698 13.8785C299.257 13.2511 299.851 12.6406 300.427 12.0301C300.75 11.6909 301.14 11.5891 301.58 11.7757C302.004 11.9453 302.208 12.2675 302.208 12.7762Z" fill="black"/>
<path d="M304.89 18.4573C304.907 18.9152 304.686 19.2374 304.279 19.407C303.465 19.7462 302.634 20.0514 301.787 20.3397C301.21 20.5432 300.701 20.2888 300.481 19.7631C300.277 19.2544 300.498 18.6947 301.057 18.4743C301.871 18.1351 302.702 17.8129 303.55 17.5416C304.262 17.3042 304.873 17.762 304.89 18.4573Z" fill="black"/>
<path d="M295.972 25.3266C295.972 27.0225 295.955 28.7183 295.972 30.4142C295.989 31.3638 295.582 32.0422 294.784 32.5001C291.834 34.2129 288.883 35.9087 285.932 37.6215C285.152 38.0794 284.372 38.0624 283.592 37.5876C280.675 35.8918 277.775 34.2129 274.841 32.5509C273.993 32.0591 273.569 31.3808 273.586 30.3803C273.603 27.0394 273.603 23.6817 273.586 20.3408C273.586 19.3233 274.01 18.628 274.892 18.1193C277.792 16.4574 280.692 14.7954 283.575 13.0996C284.389 12.6247 285.169 12.6078 285.966 13.0826C288.917 14.7954 291.868 16.4913 294.818 18.2041C295.615 18.662 295.972 19.3403 295.972 20.2391C295.955 21.9349 295.972 23.6308 295.972 25.3266ZM276.741 25.3097C276.741 26.5646 276.775 27.8026 276.724 29.0575C276.707 29.7698 276.961 30.1937 277.572 30.5329C279.759 31.7709 281.947 33.0258 284.118 34.3146C284.643 34.6199 285.084 34.6029 285.593 34.3146C287.815 33.0088 290.053 31.72 292.309 30.4481C292.783 30.1768 293.004 29.8037 293.004 29.261C293.004 26.6494 293.004 24.0548 293.004 21.4431C293.004 20.9344 292.8 20.5443 292.359 20.29C290.07 18.9672 287.781 17.6445 285.491 16.3217C285.067 16.0843 284.66 16.0843 284.236 16.3217C281.964 17.6275 279.691 18.9503 277.419 20.2561C276.944 20.5274 276.741 20.9005 276.741 21.4431C276.758 22.715 276.741 24.0208 276.741 25.3097Z" fill="#FFD987"/>
<path d="M276.742 25.3093C276.742 24.0205 276.759 22.7316 276.742 21.4258C276.725 20.8831 276.946 20.5101 277.421 20.2387C279.693 18.9329 281.966 17.6271 284.238 16.3044C284.662 16.05 285.086 16.0669 285.493 16.3044C287.782 17.6271 290.072 18.9499 292.361 20.2726C292.802 20.527 293.006 20.9171 293.006 21.4258C293.006 24.0374 293.006 26.6321 293.006 29.2437C293.006 29.7863 292.768 30.1594 292.31 30.4308C290.072 31.7196 287.833 33.0084 285.595 34.2973C285.086 34.6025 284.645 34.6195 284.119 34.2973C281.949 33.0254 279.778 31.7535 277.573 30.5155C276.963 30.1764 276.692 29.7524 276.725 29.0402C276.776 27.8022 276.742 26.5642 276.742 25.3093ZM290.988 25.3602C290.988 24.3935 290.971 23.4099 291.004 22.4433C291.021 21.9854 290.886 21.7141 290.479 21.4936C288.749 20.527 287.019 19.5265 285.306 18.5259C284.984 18.3394 284.764 18.3563 284.442 18.5429C282.695 19.5773 280.931 20.5779 279.167 21.5784C278.862 21.748 278.777 21.9515 278.777 22.2907C278.794 24.3257 278.794 26.3607 278.777 28.3788C278.777 28.7519 278.896 28.9554 279.201 29.1249C280.965 30.1255 282.729 31.143 284.475 32.1605C284.781 32.3301 285.001 32.3131 285.289 32.1436C287.053 31.1091 288.834 30.0916 290.614 29.0741C290.886 28.9214 290.988 28.7349 290.988 28.4127C290.971 27.3952 290.988 26.3777 290.988 25.3602Z" fill="black"/>
<path d="M290.985 25.3582C290.985 26.3757 290.968 27.3932 290.985 28.4107C290.985 28.7329 290.883 28.9025 290.612 29.0721C288.831 30.0896 287.051 31.1071 285.287 32.1416C284.999 32.3112 284.778 32.3281 284.473 32.1585C282.726 31.1241 280.963 30.1235 279.199 29.123C278.877 28.9364 278.758 28.7329 278.775 28.3768C278.792 26.3418 278.792 24.3068 278.775 22.2887C278.775 21.9495 278.86 21.763 279.165 21.5765C280.929 20.5759 282.692 19.5754 284.439 18.5409C284.761 18.3543 284.982 18.3374 285.304 18.5239C287.017 19.5414 288.73 20.525 290.476 21.4917C290.883 21.7291 291.019 21.9835 291.002 22.4413C290.951 23.408 290.985 24.3916 290.985 25.3582Z" fill="#CFB06E"/>
</g>
<g clip-path="url(#clip5_1014_33270)">
<rect x="78" y="269" width="76.6495" height="76.6496" rx="26" fill="#FFD987"/>
<path d="M137.235 287.781C137.234 286.353 136.072 285.192 134.645 285.191L97.0766 285.165L51.2386 331.003L92.6654 372.43L137.267 327.954L137.235 287.781Z" fill="black"/>
<path d="M99.1183 313.67L123.003 313.658L123.016 301.713L134.956 301.705L134.935 325.59L122.995 325.598L99.1143 325.614L99.1183 313.67Z" fill="white"/>
<path d="M110.825 311.458L98.8847 311.466L98.9012 287.585L110.841 287.577L134.726 287.556L134.718 299.505L110.833 299.517L110.825 311.458Z" fill="#FFD987"/>
</g>
<rect x="77.5" y="268.5" width="77.6495" height="77.6496" rx="26.5" stroke="black"/>
<rect x="195.332" y="206.305" width="100" height="100" rx="32.9276" fill="white"/>
<path d="M267.986 245.269L261.254 266.324C260.365 269.116 257.77 271.009 254.848 271.009C251.883 271.009 249.261 269.063 248.407 266.219L245.424 256.347L242.257 266.315C241.368 269.107 238.772 271.009 235.842 271.009H235.763C232.833 271.009 230.246 269.116 229.357 266.324L222.617 245.269H216L219.203 274.752C220.03 283.346 227.245 289.898 235.877 289.898H254.725C263.348 289.898 270.564 283.338 271.4 274.752L274.603 245.269H267.986Z" fill="#FFD987"/>
<path d="M235.754 271.009H235.834C238.764 271.009 241.359 269.107 242.248 266.315L245.416 256.347L248.399 266.218C249.261 269.063 251.874 271.009 254.84 271.009C257.77 271.009 260.357 269.116 261.246 266.324L268.681 245.269H259.204L254.699 259.367L250.431 245.269H240.867L236.362 259.165L232.103 245.269H222.617L229.349 266.324C230.237 269.116 232.833 271.009 235.754 271.009Z" fill="#4F4F4F"/>
<path d="M245.563 231.85C253.06 231.85 259.167 238.04 259.167 245.552L268.67 245.464C268.67 239.335 266.11 233.576 261.78 229.234C257.451 224.893 251.688 222.515 245.563 222.515C239.439 222.515 233.685 224.902 229.347 229.234C225.009 233.567 222.633 239.335 222.633 245.464L232.136 245.552C232.136 238.04 238.058 231.85 245.563 231.85Z" fill="#CFB06E"/>
<rect x="392" y="372" width="70" height="70" rx="21" fill="#13111A"/>
<path d="M432.557 422.01L421.306 408.488V418.659C421.306 418.762 421.306 418.866 421.3 418.969H425.305C425.854 418.969 426.152 419.616 425.796 420.037L422.05 424.443L415.949 431.119C415.891 431.191 415.8 431.236 415.703 431.236C415.606 431.236 415.522 431.197 415.458 431.119L405.85 419.823C405.727 419.674 405.785 419.526 405.805 419.48C405.824 419.435 405.908 419.293 406.096 419.293H410.198V415.223L409.551 418.646H406.096C405.714 418.646 405.378 418.859 405.216 419.208C405.054 419.558 405.112 419.953 405.358 420.244L414.959 431.54C415.147 431.76 415.412 431.883 415.697 431.883C415.982 431.883 416.253 431.76 416.434 431.54L422.057 424.921L423.26 426.125C423.512 426.377 423.784 426.597 424.075 426.791C424.218 426.888 424.366 426.972 424.515 427.05C426.32 427.994 428.565 427.807 430.189 426.481C430.325 426.371 430.454 426.254 430.584 426.125L433.651 423.058L433.56 422.98C433.191 422.696 432.855 422.379 432.551 422.016L432.557 422.01Z" fill="url(#paint1_linear_1014_33270)"/>
<path d="M448.68 393.75L439.079 382.46C438.891 382.24 438.626 382.117 438.341 382.117C438.057 382.117 437.785 382.24 437.604 382.46L431.975 389.079L430.584 387.688C429.691 386.795 428.546 386.297 427.375 386.193C426.832 386.148 426.282 386.193 425.745 386.31C424.839 386.523 423.972 386.976 423.267 387.681L420.278 390.67C420.724 390.994 421.132 391.363 421.488 391.79L432.739 405.311V395.018H428.747C428.443 395.018 428.216 394.824 428.132 394.572C428.067 394.371 428.093 394.138 428.255 393.95L432.001 389.544L438.096 382.881C438.154 382.809 438.244 382.764 438.341 382.764C438.439 382.764 438.523 382.803 438.587 382.881L448.188 394.177C448.311 394.326 448.253 394.474 448.234 394.52C448.214 394.565 448.13 394.707 447.943 394.707H443.841V398.777L444.488 395.354H447.943C448.324 395.354 448.661 395.141 448.823 394.791C448.984 394.442 448.926 394.047 448.68 393.756V393.75Z" fill="url(#paint2_linear_1014_33270)"/>
<path d="M407.713 410.565L409.873 412.726V401.08L407.713 403.241C406.826 404.127 406.328 405.253 406.218 406.405C406.205 406.567 406.192 406.735 406.192 406.903C406.192 407.233 406.224 407.563 406.289 407.893C406.477 408.87 406.956 409.808 407.713 410.565Z" fill="url(#paint3_linear_1014_33270)"/>
<path d="M444.163 401.268V412.538L446.13 410.565C448.148 408.546 448.148 405.266 446.13 403.248L444.157 401.274L444.163 401.268Z" fill="url(#paint4_linear_1014_33270)"/>
<rect x="348" y="214" width="64" height="64" rx="18" fill="#1D2140"/>
<path d="M373.132 236.571H374.929L373.285 232.748H370.928L361.855 248.459L363.04 250.498L367.169 250.014L366.277 248.459L373.132 236.571Z" fill="#FFD987"/>
<path d="M386.867 260.348H373.131L372.239 258.793L369.754 262.131L370.926 264.17H389.071L390.243 262.131L387.758 258.793L386.867 260.348Z" fill="#FFD987"/>
<path d="M389.071 232.748H386.714L385.07 236.571H386.867L393.735 248.459L392.83 250.014L396.959 250.498L398.144 248.459L389.071 232.748Z" fill="#FFD987"/>
<path d="M364.072 252.295L355 253.365L363.219 258.143L363.244 267.649L368.71 260.322L371.195 256.996L375.719 250.931L368.214 251.81L364.072 252.295Z" fill="white"/>
<path d="M388.246 224.351L380.002 229.079L371.758 224.351L375.364 232.748L377.008 236.571L380.002 243.515L382.996 236.571L384.64 232.748L388.246 224.351Z" fill="white"/>
<path d="M395.928 252.295L391.799 251.81L384.281 250.931L388.805 256.996L391.289 260.322L396.756 267.649L396.781 258.143L405 253.365L395.928 252.295Z" fill="white"/>
<rect x="412" y="119" width="70" height="70" rx="21" fill="white"/>
<path fill-rule="evenodd" clip-rule="evenodd" d="M440.012 177.652L466.561 167.486L453.557 161.835L440.012 177.652Z" fill="#33AAD3"/>
<path fill-rule="evenodd" clip-rule="evenodd" d="M449.711 173.958L466.562 167.486L453.685 161.835L449.711 173.958Z" fill="#008CC5"/>
<mask id="mask0_1014_33270" style="mask-type:luminance" maskUnits="userSpaceOnUse" x="440" y="138" width="27" height="40">
<path d="M453.66 161.961L466.569 167.486L454.168 161.677L453.564 138.788V161.835L440.02 177.652L453.66 161.961Z" fill="white"/>
</mask>
<g mask="url(#mask0_1014_33270)">
<path d="M466.569 138.787H440.02V177.684H466.569V138.787Z" fill="url(#paint5_linear_1014_33270)"/>
</g>
<mask id="mask1_1014_33270" style="mask-type:luminance" maskUnits="userSpaceOnUse" x="453" y="138" width="14" height="30">
<path d="M454.163 161.676L466.563 167.485L453.559 138.787L454.163 161.676Z" fill="white"/>
</mask>
<g mask="url(#mask1_1014_33270)">
<path d="M466.563 138.787H453.559V167.517H466.563V138.787Z" fill="url(#paint6_linear_1014_33270)"/>
</g>
<path fill-rule="evenodd" clip-rule="evenodd" d="M453.908 151.7L453.559 138.787L462.938 159.498L453.908 151.7Z" fill="#33AAD3"/>
<path fill-rule="evenodd" clip-rule="evenodd" d="M453.557 161.835V138.788L440.012 177.652L453.557 161.835Z" fill="#006FA7"/>
<path fill-rule="evenodd" clip-rule="evenodd" d="M466.561 167.486L454.192 160.982L453.588 138.819L453.557 138.788V138.819L452.857 161.14L440.012 177.652L453.588 162.119L466.529 167.518L466.561 167.486Z" fill="white"/>
<path fill-rule="evenodd" clip-rule="evenodd" d="M454.002 130.484L427.453 140.65L440.457 146.302L454.002 130.484Z" fill="#33AAD3"/>
<path fill-rule="evenodd" clip-rule="evenodd" d="M444.305 134.21L427.453 140.65L440.33 146.302L444.305 134.21Z" fill="#008CC5"/>
<mask id="mask2_1014_33270" style="mask-type:luminance" maskUnits="userSpaceOnUse" x="427" y="130" width="28" height="40">
<path d="M440.362 146.207L427.453 140.65L439.853 146.491L440.457 169.38V146.302L454.002 130.484L440.362 146.207Z" fill="white"/>
</mask>
<g mask="url(#mask2_1014_33270)">
<path d="M454.002 130.484H427.453V169.38H454.002V130.484Z" fill="url(#paint7_linear_1014_33270)"/>
</g>
<mask id="mask3_1014_33270" style="mask-type:luminance" maskUnits="userSpaceOnUse" x="427" y="140" width="14" height="30">
<path d="M439.853 146.491L427.453 140.651L440.457 169.381L439.853 146.491Z" fill="white"/>
</mask>
<g mask="url(#mask3_1014_33270)">
<path d="M440.457 140.651H427.453V169.381H440.457V140.651Z" fill="url(#paint8_linear_1014_33270)"/>
</g>
<path fill-rule="evenodd" clip-rule="evenodd" d="M440.104 156.436L440.454 169.38L431.074 148.669L440.104 156.436Z" fill="#33AAD3"/>
<path fill-rule="evenodd" clip-rule="evenodd" d="M440.461 146.302V169.381L454.006 130.484L440.461 146.302Z" fill="#006FA7"/>
<path fill-rule="evenodd" clip-rule="evenodd" d="M427.453 140.65L439.853 147.186L440.426 169.349L440.457 169.381V169.349L441.157 146.996L454.002 130.516V130.484H453.97L440.426 146.018L427.453 140.65Z" fill="white"/>
<defs>
<radialGradient id="paint0_radial_1014_33270" cx="0" cy="0" r="1" gradientUnits="userSpaceOnUse" gradientTransform="translate(241 246) rotate(90) scale(234)">
<stop stop-color="#002032"/>
<stop offset="1" stop-color="#002032" stop-opacity="0"/>
</radialGradient>
<linearGradient id="paint1_linear_1014_33270" x1="410.68" y1="430.153" x2="452.149" y2="430.18" gradientUnits="userSpaceOnUse">
<stop stop-color="#23C3C4"/>
<stop offset="1" stop-color="#A801F1"/>
</linearGradient>
<linearGradient id="paint2_linear_1014_33270" x1="410.68" y1="430.153" x2="452.149" y2="430.18" gradientUnits="userSpaceOnUse">
<stop stop-color="#23C3C4"/>
<stop offset="1" stop-color="#A801F1"/>
</linearGradient>
<linearGradient id="paint3_linear_1014_33270" x1="410.68" y1="430.153" x2="452.149" y2="430.18" gradientUnits="userSpaceOnUse">
<stop stop-color="#23C3C4"/>
<stop offset="1" stop-color="#A801F1"/>
</linearGradient>
<linearGradient id="paint4_linear_1014_33270" x1="410.68" y1="430.153" x2="452.149" y2="430.18" gradientUnits="userSpaceOnUse">
<stop stop-color="#23C3C4"/>
<stop offset="1" stop-color="#A801F1"/>
</linearGradient>
<linearGradient id="paint5_linear_1014_33270" x1="453.29" y1="138.472" x2="453.29" y2="170.751" gradientUnits="userSpaceOnUse">
<stop stop-color="#33AAD3"/>
<stop offset="1" stop-color="white"/>
</linearGradient>
<linearGradient id="paint6_linear_1014_33270" x1="453.405" y1="153.143" x2="460.081" y2="153.143" gradientUnits="userSpaceOnUse">
<stop stop-color="#006FA7"/>
<stop offset="1" stop-color="#33AAD3"/>
</linearGradient>
<linearGradient id="paint7_linear_1014_33270" x1="440.732" y1="169.686" x2="440.732" y2="137.397" gradientUnits="userSpaceOnUse">
<stop stop-color="#33AAD3"/>
<stop offset="1" stop-color="white"/>
</linearGradient>
<linearGradient id="paint8_linear_1014_33270" x1="440.613" y1="155.012" x2="433.933" y2="155.012" gradientUnits="userSpaceOnUse">
<stop stop-color="#006FA7"/>
<stop offset="1" stop-color="#33AAD3"/>
</linearGradient>
<clipPath id="clip0_1014_33270">
<rect width="41.9452" height="53.475" fill="white" transform="translate(155.102 116.966) rotate(-30)"/>
</clipPath>
<clipPath id="clip1_1014_33270">
<rect width="48.4222" height="34.5873" fill="white" transform="translate(15.918 159.348)"/>
</clipPath>
<clipPath id="clip2_1014_33270">
<rect width="30.1472" height="17.7591" fill="white" transform="translate(28.6953 170.949)"/>
</clipPath>
<clipPath id="clip3_1014_33270">
<rect width="45.5814" height="40" fill="white" transform="translate(121 436)"/>
</clipPath>
<clipPath id="clip4_1014_33270">
<rect x="248" width="77.2071" height="77.2072" rx="24.599" fill="white"/>
</clipPath>
<clipPath id="clip5_1014_33270">
<rect x="78" y="269" width="76.6495" height="76.6496" rx="26" fill="white"/>
</clipPath>
</defs>
</svg>
